<?xml version="1.0" encoding="utf-8"?><svg xmlns="http://www.w3.org/2000/svg" xmlns:xlink="http://www.w3.org/1999/xlink"><symbol viewBox="0 0 16 16" id="arrow" xmlns="http://www.w3.org/2000/svg"><path fill-rule="evenodd" clip-rule="evenodd" d="M0.633692 15.3663L1.26738 16L7.72816 9.53912L14.1889 3.07824L14.1889 9.22633L14.1889 15.3744L15.0945 15.3744L16 15.3744L15.9916 8.0082L15.9831 0.641973L15.8973 0.477365C15.8006 0.292015 15.5663 0.0944198 15.3753 0.0372022C15.2847 0.0100415 13.2779 3.73278e-07 7.93839 6.06676e-07L0.62556 9.2633e-07L0.62556 0.905347L0.62556 1.81069L6.77349 1.81069L12.9214 1.81069L6.46071 8.27164L-5.54006e-08 14.7326L0.633692 15.3663Z"/></symbol><symbol viewBox="0 0 17 17" id="date" xmlns="http://www.w3.org/2000/svg"><path fill-rule="evenodd" clip-rule="evenodd" d="M4.22413 0.55192C4.07338 0.622474 3.94907 0.765195 3.90726 0.915704C3.88998 0.977921 3.87577 1.16777 3.87568 1.33754L3.8755 1.64619L3.27462 1.65976C2.60206 1.67491 2.42672 1.71197 2.05004 1.91846C1.74665 2.08479 1.38898 2.46202 1.233 2.78023C0.979835 3.29668 1.0004 2.75872 1.0004 8.86311C1.0004 14.9564 0.980778 14.4314 1.22722 14.9343C1.45382 15.3968 1.89314 15.779 2.41154 15.9646L2.67374 16.0585H8.5H14.3263L14.5697 15.9728C15.2532 15.7322 15.7578 15.1892 15.9462 14.4916C15.9962 14.3065 15.9996 13.9459 15.9996 8.86311C15.9996 2.75698 16.0203 3.29705 15.7661 2.77825C15.5873 2.41355 15.225 2.05233 14.8587 1.87358C14.5019 1.69949 14.2405 1.65255 13.6278 1.65255H13.1245L13.1243 1.3407C13.1241 0.970285 13.0915 0.834532 12.9693 0.69534C12.7055 0.3949 12.2023 0.458304 12.0303 0.81366C11.9788 0.919933 11.9684 1.00171 11.9684 1.29707V1.65255H8.5024H5.03646L5.02642 1.26227C5.01736 0.908736 5.00951 0.861944 4.94309 0.765134C4.77673 0.522652 4.47672 0.433691 4.22413 0.55192ZM3.88092 3.16616C3.89467 3.58212 3.94103 3.71076 4.12519 3.84417C4.34668 4.00462 4.62856 3.98886 4.8388 3.80428C5.00196 3.66101 5.03162 3.5618 5.03162 3.15953V2.80867H8.5H11.9684V3.15953C11.9684 3.5618 11.998 3.66101 12.1612 3.80428C12.3757 3.99261 12.6707 4.00204 12.8991 3.82783C13.0604 3.70482 13.1058 3.56819 13.1191 3.16616L13.1309 2.80867H13.6134C14.0247 2.80867 14.1203 2.81783 14.262 2.87086C14.4713 2.94917 14.6583 3.12865 14.7628 3.3516L14.8435 3.52365L14.8534 4.45919L14.8633 5.39474H8.5H2.13666L2.14706 4.45919C2.1561 3.64233 2.16431 3.50822 2.21162 3.40195C2.29797 3.20808 2.41057 3.06317 2.54298 2.97555C2.76094 2.83131 2.85321 2.81312 3.37791 2.8108L3.86908 2.80867L3.88092 3.16616ZM14.8517 10.3767L14.8435 14.2026L14.764 14.3699C14.6687 14.5704 14.5046 14.7395 14.3141 14.8334L14.1741 14.9023H8.5H2.82586L2.68509 14.833C2.49046 14.7371 2.32991 14.5723 2.23596 14.372L2.15653 14.2026L2.14825 10.3767L2.13994 6.55087H8.5H14.8601L14.8517 10.3767Z" stroke-width="0.2"/></symbol><symbol viewBox="0 0 32 32" id="facebook" xmlns="http://www.w3.org/2000/svg"><path d="M2.34315 2.34315C0 4.68629 0 8.45753 0 16C0 23.5425 0 27.3137 2.34315 29.6569C4.65215 31.9659 8.34792 31.9995 15.6727 32C15.618 31.9993 15.5739 31.9548 15.5739 31.9V19.9C15.5739 19.8448 15.5291 19.8 15.4739 19.8H12.1C12.0448 19.8 12 19.7553 12 19.7V15.5075C12 15.4522 12.0448 15.4075 12.1 15.4075H15.4739C15.5291 15.4075 15.5739 15.3627 15.5739 15.3075V11.6557C15.5739 8.70743 17.685 6 22.5494 6C24.2315 6 25.5393 6.12432 25.8852 6.1606C25.9367 6.166 25.9742 6.21013 25.9728 6.26191L25.8633 10.1743C25.8618 10.2287 25.8174 10.272 25.7629 10.2715C25.4073 10.2687 24.1297 10.2593 22.7545 10.2593C21.0003 10.2593 20.7193 10.989 20.7193 12.2001V15.3075C20.7193 15.3627 20.764 15.4075 20.8193 15.4075H25.8946C25.9519 15.4075 25.9975 15.4555 25.9945 15.5127L25.7752 19.7053C25.7724 19.7584 25.7285 19.8 25.6753 19.8H20.8193C20.764 19.8 20.7193 19.8448 20.7193 19.9V31.9C20.7193 31.9274 20.7082 31.9522 20.6904 31.9703C25.2234 31.8726 27.86 31.4537 29.6569 29.6569C32 27.3137 32 23.5425 32 16C32 8.45753 32 4.68629 29.6569 2.34315C27.3137 0 23.5425 0 16 0C8.45753 0 4.68629 0 2.34315 2.34315Z"/></symbol><symbol viewBox="0 0 14 7" id="footer-arrow" xmlns="http://www.w3.org/2000/svg"><path d="M2.11906 7L0.5 6.22475L7 2.84124e-07L13.5 6.22475L11.8809 7L7 2.32575L2.11906 7Z" fill-opacity="0.9"/></symbol><symbol viewBox="0 0 32 32" id="in" xmlns="http://www.w3.org/2000/svg"><path fill-rule="evenodd" clip-rule="evenodd" d="M2.34315 2.34315C0 4.68629 0 8.45753 0 16C0 23.5425 0 27.3137 2.34315 29.6569C4.68629 32 8.45753 32 16 32C23.5425 32 27.3137 32 29.6569 29.6569C32 27.3137 32 23.5425 32 16C32 8.45753 32 4.68629 29.6569 2.34315C27.3137 0 23.5425 0 16 0C8.45753 0 4.68629 0 2.34315 2.34315ZM10.7672 26.4C10.7672 26.4552 10.7224 26.5 10.6672 26.5H6.36559C6.31036 26.5 6.26559 26.4552 6.26559 26.4V13.106C6.26559 13.0508 6.31036 13.006 6.36559 13.006H10.6672C10.7224 13.006 10.7672 13.0508 10.7672 13.106V26.4ZM11.0638 8.8315C11.0638 10.1264 10.0867 11.1626 8.51696 11.1626H8.48757C6.97687 11.1626 6 10.1264 6 8.8315C6 7.50744 7.00694 6.5 8.54675 6.5C10.0868 6.5 11.0346 7.50742 11.0638 8.8315ZM13.2589 26.4998C13.2587 26.4998 13.2588 26.4999 13.2589 26.4998C13.2592 26.435 13.3153 14.7945 13.2626 13.1039C13.2608 13.0469 13.3066 13.0058 13.3636 13.0058H17.6604C17.7157 13.0058 17.7604 13.0505 17.7604 13.1058V14.9164C18.3587 13.9969 19.4295 12.6892 21.8174 12.6892C24.7792 12.6892 27 14.6178 27 18.7626V26.3999C27 26.4551 26.9552 26.4999 26.9 26.4999H22.5987C22.5435 26.4999 22.4987 26.4551 22.4987 26.3999V19.2809C22.4987 17.4669 21.847 16.2295 20.2181 16.2295C18.9746 16.2295 18.2339 17.0641 17.9085 17.8698C17.7896 18.1581 17.7603 18.561 17.7603 18.9643V26.4C17.7603 26.4552 17.7156 26.5 17.6603 26.5L13.2589 26.4998Z"/></symbol><symbol viewBox="0 0 32 32" id="instagram" xmlns="http://www.w3.org/2000/svg"><path d="M17.437 21.42C16.2462 21.7858 14.9675 21.7203 13.819 21.2345C13.0855 20.9254 12.4285 20.455 11.8954 19.8569C11.3623 19.2589 10.9663 18.5482 10.736 17.776C10.5056 17.0038 10.4466 16.1893 10.5632 15.3912C10.6799 14.593 10.9692 13.8311 11.4104 13.1602C11.8516 12.4893 12.4336 11.9262 13.1147 11.5113C13.7958 11.0964 14.559 10.8402 15.3492 10.761C16.1395 10.6818 16.9372 10.7816 17.6849 11.0533C18.4326 11.3249 19.1118 11.7617 19.6735 12.332C20.5546 13.2243 21.1035 14.3998 21.2264 15.6576C21.3494 16.9154 21.0388 18.1776 20.3476 19.2286C19.6565 20.2796 18.6277 21.0541 17.437 21.42Z"/><path fill-rule="evenodd" clip-rule="evenodd" d="M2.34315 2.34315C0 4.68629 0 8.45753 0 16C0 23.5425 0 27.3137 2.34315 29.6569C4.68629 32 8.45753 32 16 32C23.5425 32 27.3137 32 29.6569 29.6569C32 27.3137 32 23.5425 32 16C32 8.45753 32 4.68629 29.6569 2.34315C27.3137 0 23.5425 0 16 0C8.45753 0 4.68629 0 2.34315 2.34315ZM12.7086 8.42271C11.7046 8.84529 10.7923 9.46467 10.0239 10.2455C8.47196 11.8224 7.6001 13.9612 7.6001 16.1914C7.6001 18.4215 8.47196 20.5603 10.0239 22.1372C11.5758 23.7142 13.6806 24.6001 15.8754 24.6001C18.0701 24.6001 20.175 23.7142 21.7269 22.1372C22.4953 21.3564 23.1049 20.4294 23.5208 19.4092C23.9366 18.3891 24.1507 17.2956 24.1507 16.1914C24.1507 15.0871 23.9366 13.9937 23.5208 12.9735C23.1049 11.9533 22.4953 11.0263 21.7269 10.2455C20.9585 9.46467 20.0462 8.84529 19.0422 8.42271C18.0382 8.00013 16.9621 7.78263 15.8754 7.78263C14.7887 7.78263 13.7126 8.00013 12.7086 8.42271ZM26.4343 8.38941C26.3289 8.63288 26.1765 8.85238 25.986 9.0349C25.6157 9.38988 25.1238 9.58423 24.6147 9.57669C24.1057 9.56915 23.6195 9.36031 23.2595 8.99451C22.8996 8.62871 22.694 8.13475 22.6866 7.61748C22.6792 7.10022 22.8705 6.60038 23.2198 6.22407C23.3994 6.03058 23.6154 5.87567 23.855 5.76853C24.0947 5.66139 24.353 5.60419 24.6147 5.60031C24.8765 5.59643 25.1363 5.64596 25.3789 5.74596C25.6215 5.84596 25.8418 5.9944 26.027 6.18249C26.2121 6.37058 26.3581 6.59449 26.4566 6.84098C26.555 7.08747 26.6037 7.35151 26.5999 7.61748C26.5961 7.88346 26.5398 8.14595 26.4343 8.38941Z"/></symbol><symbol viewBox="0 0 1440 1050" id="line-bg" xmlns="http://www.w3.org/2000/svg"><path d="M-143.127 205.594C63.932 114.464 1040.06 -135.053 1090.96 127.781C1156.27 465.046 392.649 799.899 275.836 575.892C121.179 279.312 1303.8 33.3277 1447.52 281.618C1591.24 529.908 1231.63 847.411 293.591 1039.3" stroke-width="20" stroke-linecap="round"/></symbol><symbol viewBox="0 0 278 326" id="line-bg-webinars" xmlns="http://www.w3.org/2000/svg"><path d="M91.0383 397.779C57.0255 354.862 -44.3235 142.037 40.7558 114.854C149.928 79.9737 274.963 238.321 203.928 278.593C109.878 331.914 5.53787 70.7834 83.988 22.8274C162.438 -25.1287 273.673 40.1214 355.378 247.434" stroke-opacity="0.2" stroke-width="14" stroke-linecap="round"/></symbol><symbol viewBox="0 0 109 40" id="logo" xmlns="http://www.w3.org/2000/svg"><g clip-path="url(#jclip0_1003_459)"><path d="M1.4069 0.475384L2.85172 1.67883V7.10297H10.6621L11.7241 8.4409L10.6586 9.71332H2.85172V14.8995L1.4069 16.103L0 14.8995V1.67883L1.4069 0.475384ZM5.63103 14.1444H11.5862L12.5828 15.4133L11.5207 16.7547H5.63103L4.66897 15.5168L5.63103 14.1444ZM5.83793 0.165039H11.5172L12.5793 1.50297L11.5172 2.77538H5.9069L4.77241 1.5409L5.83793 0.165039ZM37.4897 2.7409L38.7621 4.11332L37.4897 5.48918H18.2586L17.0207 4.11332L18.2586 2.7409H37.4897ZM15.9897 8.44435L17.1897 7.41332L18.3931 8.44435V9.95814C18.3931 12.4995 19.0793 14.5926 22.1379 14.5926H22.7552C25.5034 14.5926 27.0138 12.7375 27.0138 9.85125V8.40987L28.1828 7.37883L29.3862 8.37538V9.95469C29.3862 12.5306 30.1414 14.4547 33.0966 14.4547H33.6103C36.4966 14.4547 37.0103 12.2547 37.0448 9.85125V8.30642L38.2138 7.34435L39.4483 8.3409V9.88573C39.4138 13.2168 38.5207 17.0306 33.7138 17.0306H33.2C30.3483 17.0306 28.8034 15.7581 28.1862 14.1788C27.4655 15.7926 25.5414 17.203 22.931 17.203H22.3103C17.3655 17.203 16.0276 14.2168 15.9931 10.0237V8.44435H15.9897ZM25.8138 33.3064L25.1276 31.4512L26.9138 30.9375L33.2 33.7857V27.9133L34.4724 26.8478L35.7759 27.9133V35.0237L38.1103 36.0892L38.7621 37.8064L36.9414 38.4581L25.8138 33.3064ZM37.0103 20.7685L38.7276 21.5581L38.1793 23.3099L22.7207 30.4892L20.8655 29.7685L21.6207 27.9823L37.0103 20.7685ZM14.7069 30.5581L16.2172 31.7961C16.0793 36.1581 12.3345 38.4581 7.9069 38.4581H7.45862C5.25862 38.4581 2.68621 37.634 1.03793 36.0547L1.21034 34.303L2.82414 34.0961C4.02759 35.1271 5.71034 35.8478 7.28966 35.8478H7.77241C10.7621 35.8478 13.0621 34.6133 13.3034 31.6926L14.7069 30.5581ZM13.2966 27.7064C13.1586 24.6823 10.8931 23.4823 7.76552 23.4823H7.28276C5.42759 23.4823 4.02069 24.203 2.81724 25.234L1.20345 25.0271L1.03103 23.2754C2.67931 21.6616 4.97931 20.9064 7.38621 20.9064H7.86552C12.331 20.9064 16.0759 23.1754 16.2103 27.603L14.7 28.8064L13.2966 27.7064Z"/><path d="M53.8048 4.993H50.2944C50.3737 5.67576 50.8496 6.17921 51.5496 6.17921C51.9737 6.17921 52.3703 6.01024 52.5979 5.66542L53.7151 5.69645C53.3186 6.57576 52.4979 7.04128 51.5496 7.04128C50.2255 7.04128 49.2462 6.05162 49.2462 4.68955C49.2462 3.32404 50.2048 2.34473 51.522 2.34473C52.7186 2.34473 53.8048 3.14473 53.8048 4.98611V4.993ZM50.2944 4.27231H52.6979C52.6496 3.6999 52.1841 3.20335 51.5324 3.20335C50.8668 3.20335 50.4117 3.63783 50.2944 4.27231Z"/><path d="M57.2358 3.66886C56.8979 3.34128 56.4048 3.18611 56.0703 3.18611C55.6841 3.18611 55.4875 3.393 55.4875 3.5999C55.4875 3.84817 55.5979 3.96542 55.9013 4.07576L56.6737 4.34128C57.5048 4.62749 57.8496 5.08266 57.8496 5.63783C57.8496 6.35162 57.3048 7.04128 56.1875 7.04128C55.4565 7.04128 54.7324 6.74473 54.3082 6.33783L54.891 5.57576C55.2289 5.91024 55.7496 6.15852 56.1668 6.15852C56.5634 6.15852 56.8186 5.98955 56.8186 5.72404C56.8186 5.43783 56.6806 5.32059 56.1841 5.15162L55.4427 4.893C54.8186 4.67576 54.4737 4.21024 54.4737 3.65852C54.4737 3.0068 55.0358 2.34473 56.1048 2.34473C56.6289 2.34473 57.3324 2.55162 57.7944 2.98611L57.2358 3.66886Z"/><path d="M60.8428 6.17973C61.3565 6.17973 61.7531 5.93145 61.9807 5.528L62.8324 5.96249C62.4772 6.62456 61.6945 7.0418 60.8462 7.0418C59.5221 7.0418 58.4841 6.06249 58.4841 4.69697C58.4841 3.32111 59.5221 2.3418 60.8462 2.3418C61.6979 2.3418 62.4772 2.75559 62.8324 3.42111L61.9807 3.85559C61.7531 3.44869 61.3565 3.20387 60.8428 3.20387C60.0324 3.20387 59.4772 3.84525 59.4772 4.69697C59.4772 5.54869 60.0324 6.17973 60.8428 6.17973Z"/><path d="M63.6393 5.29984V2.46191H64.6289V5.17226C64.6289 5.87571 65.0945 6.1895 65.6772 6.1895C66.26 6.1895 66.7255 5.87226 66.7255 5.17226V2.46191H67.7048V5.29984C67.7048 6.23778 66.9634 7.04122 65.6772 7.04122C64.391 7.04122 63.6393 6.23778 63.6393 5.29984Z"/><path d="M73.1427 4.993H69.6324C69.7117 5.67576 70.1876 6.17921 70.8876 6.17921C71.3117 6.17921 71.7082 6.01024 71.9358 5.66542L73.0531 5.69645C72.6565 6.57576 71.8358 7.04128 70.8876 7.04128C69.5634 7.04128 68.5841 6.05162 68.5841 4.68955C68.5841 3.32404 69.5427 2.34473 70.86 2.34473C72.0565 2.34473 73.1427 3.14473 73.1427 4.98611V4.993ZM69.6324 4.27231H72.0358C71.9876 3.6999 71.522 3.20335 70.8703 3.20335C70.2048 3.20335 69.7496 3.63783 69.6324 4.27231Z"/><path d="M75.0393 6.92069H74.06V0H75.0393V6.92069Z"/><path d="M78.8462 3.92404C78.8462 3.44817 78.491 3.20335 77.9152 3.20335C77.4324 3.20335 76.9945 3.41024 76.66 3.67921L76.1945 2.94817C76.5703 2.62059 77.2014 2.34473 77.9841 2.34473C79.16 2.34473 79.8324 2.99645 79.8324 3.94817V6.92404H78.8427V6.45852C78.5841 6.87231 78.0324 7.04128 77.5669 7.04128C76.5496 7.04128 75.9565 6.45852 75.9565 5.63783C75.9565 4.76886 76.5703 4.27231 77.5669 4.27231H78.5255C78.7531 4.27231 78.8427 4.17231 78.8427 3.99645V3.92404H78.8462ZM78.8462 5.28955V4.90335C78.7565 4.97231 78.5979 5.00335 78.3703 5.00335H77.7772C77.2531 5.00335 76.9876 5.23093 76.9876 5.6068C76.9876 5.95162 77.2462 6.26886 77.7772 6.26886C78.3324 6.26886 78.8462 5.98266 78.8462 5.28955Z"/><path d="M50.522 17.3728H49.5427V10.4521H50.522V13.5763C50.76 13.1315 51.3807 12.7935 52.0358 12.7935C53.3324 12.7935 54.2703 13.7728 54.2703 15.1384C54.2703 16.5039 53.3117 17.4901 52.0151 17.4901C51.3738 17.4901 50.7703 17.1728 50.522 16.728V17.3728ZM50.491 15.1384C50.491 15.9901 51.0531 16.6418 51.8738 16.6418C52.6841 16.6418 53.2565 15.9901 53.2565 15.1384C53.2565 14.2866 52.6841 13.6453 51.8738 13.6453C51.0531 13.6453 50.491 14.2901 50.491 15.1384Z"/><path d="M57.7599 13.7827H57.2462C56.6117 13.7827 56.1979 14.1482 56.1979 15.1586V17.3724H55.2186V12.9138H56.1772V13.6275C56.3462 13.1344 56.791 12.8379 57.4117 12.8379C57.522 12.8379 57.6393 12.8482 57.7565 12.8689V13.7827H57.7599Z"/><path d="M59.7566 17.3724H58.7669V13.7241H58.0945V12.9138H59.7566V17.3724ZM59.2014 10.6104C59.5876 10.6104 59.9048 10.9276 59.9048 11.3138C59.9048 11.7 59.5876 12.0069 59.2014 12.0069C58.8152 12.0069 58.5083 11.7 58.5083 11.3138C58.5083 10.9276 58.8152 10.6104 59.2014 10.6104Z"/><path d="M62.2565 11.1143V12.9143H63.3048V13.7246H62.2565V16.2246C62.2565 16.5315 62.4841 16.5901 62.7117 16.5901C63.0565 16.5901 63.3151 16.5487 63.3151 16.5487V17.3694C63.3151 17.3694 62.8289 17.4177 62.4634 17.4177C61.9289 17.4177 61.2669 17.3074 61.2669 16.4384V13.7246H60.5358V12.9143H61.2669V11.1143H62.2565Z"/><path d="M66.7462 14.3797C66.7462 13.9039 66.391 13.659 65.8151 13.659C65.3289 13.659 64.8944 13.8659 64.56 14.1349L64.0944 13.4039C64.4703 13.0763 65.1013 12.8004 65.8841 12.8004C67.06 12.8004 67.7324 13.4521 67.7324 14.4039V17.3797H66.7427V16.9142C66.4841 17.328 65.9324 17.497 65.4669 17.497C64.4496 17.497 63.8565 16.9142 63.8565 16.0935C63.8565 15.2246 64.4703 14.728 65.4669 14.728H66.4255C66.6531 14.728 66.7427 14.628 66.7427 14.4521V14.3797H66.7462ZM66.7462 15.7418V15.3556C66.6565 15.4246 66.4979 15.4556 66.2703 15.4556H65.6772C65.1531 15.4556 64.8875 15.6832 64.8875 16.059C64.8875 16.4039 65.1462 16.7211 65.6772 16.7211C66.2324 16.7211 66.7462 16.4349 66.7462 15.7418ZM65.6082 10.4521H66.8358L65.9841 12.1246H65.0358L65.6082 10.4521Z"/><path d="M69.891 13.1727C69.891 13.3003 69.891 13.3796 69.8806 13.4693C70.2565 13.0348 70.7703 12.7969 71.3358 12.7969C72.3841 12.7969 72.9979 13.4486 72.9979 14.4693V17.3762H72.0082V14.6072C72.0082 13.9727 71.622 13.6762 71.1289 13.6762C70.7048 13.6762 70.2875 13.8934 69.9117 14.3279V17.3727H68.9324V12.9141H69.891V13.1727Z"/><path d="M75.3772 17.3724H74.3876V13.7241H73.7151V12.9138H75.3772V17.3724ZM74.822 10.6104C75.2083 10.6104 75.5255 10.9276 75.5255 11.3138C75.5255 11.7 75.2083 12.0069 74.822 12.0069C74.4358 12.0069 74.1289 11.7 74.1289 11.3138C74.1324 10.9276 74.4358 10.6104 74.822 10.6104Z"/><path d="M78.6806 16.6309C79.1944 16.6309 79.591 16.3826 79.8186 15.9792L80.6703 16.4137C80.3151 17.0757 79.5324 17.493 78.6841 17.493C77.36 17.493 76.322 16.5137 76.322 15.1481C76.322 13.7723 77.36 12.793 78.6841 12.793C79.5358 12.793 80.3151 13.2068 80.6703 13.8723L79.8186 14.3068C79.591 13.8999 79.1944 13.655 78.6806 13.655C77.8703 13.655 77.3151 14.2964 77.3151 15.1481C77.3151 15.9999 77.8669 16.6309 78.6806 16.6309Z"/><path d="M84.0772 14.3791C84.0772 13.9033 83.722 13.6584 83.1462 13.6584C82.6634 13.6584 82.2255 13.8653 81.891 14.1343L81.4255 13.4033C81.8014 13.0757 82.4324 12.7998 83.2151 12.7998C84.391 12.7998 85.0634 13.4515 85.0634 14.4033V17.3791H84.0738V16.9136C83.8152 17.3274 83.2634 17.4964 82.7979 17.4964C81.7807 17.4964 81.1876 16.9136 81.1876 16.0929C81.1876 15.2239 81.8014 14.7274 82.7979 14.7274H83.7565C83.9841 14.7274 84.0738 14.6274 84.0738 14.4515V14.3791H84.0772ZM84.0772 15.7412V15.355C83.9876 15.4239 83.8289 15.455 83.6014 15.455H83.0083C82.4841 15.455 82.2186 15.6826 82.2186 16.0584C82.2186 16.4033 82.4772 16.7205 83.0083 16.7205C83.5634 16.7205 84.0772 16.4343 84.0772 15.7412Z"/><path d="M91.8289 16.7206C91.591 17.1654 90.9876 17.493 90.3358 17.493C89.0393 17.493 88.091 16.5034 88.091 15.1413C88.091 13.7758 89.022 12.7965 90.3151 12.7965C90.9772 12.7965 91.591 13.1344 91.8393 13.5792C91.8289 13.2723 91.8289 12.9068 91.8289 12.562V10.4551H92.8186V17.3758H91.8289V16.7206ZM89.1013 15.1378C89.1013 15.9896 89.6634 16.6413 90.4841 16.6413C91.2945 16.6413 91.8669 15.9896 91.8669 15.1378C91.8669 14.2861 91.2945 13.6447 90.4841 13.6447C89.6634 13.6447 89.1013 14.2896 89.1013 15.1378Z"/><path d="M98.3255 15.4452H94.8151C94.8944 16.1279 95.3703 16.6314 96.0703 16.6314C96.4944 16.6314 96.891 16.4624 97.1186 16.1176L98.2358 16.1486C97.8393 17.0279 97.0186 17.4934 96.0703 17.4934C94.7462 17.4934 93.7668 16.5038 93.7668 15.1417C93.7668 13.7762 94.7255 12.7969 96.0427 12.7969C97.2393 12.7969 98.3255 13.5969 98.3255 15.4383V15.4452ZM94.8151 14.7245H97.2186C97.1703 14.152 96.7048 13.6555 96.0531 13.6555C95.3875 13.6555 94.9324 14.09 94.8151 14.7245Z"/><path d="M52.0737 24.8313C52.0737 24.3554 51.7186 24.1106 51.1427 24.1106C50.6565 24.1106 50.222 24.3175 49.8875 24.5864L49.422 23.8554C49.7979 23.5278 50.4289 23.252 51.2117 23.252C52.3875 23.252 53.0599 23.9037 53.0599 24.8554V27.8313H52.0703V27.3657C51.8117 27.7795 51.2599 27.9485 50.7944 27.9485C49.7772 27.9485 49.1841 27.3657 49.1841 26.5451C49.1841 25.6761 49.7979 25.1795 50.7944 25.1795H51.753C51.9806 25.1795 52.0703 25.0795 52.0703 24.9037V24.8313H52.0737ZM52.0737 26.1933V25.8071C51.9841 25.8761 51.8255 25.9071 51.5979 25.9071H51.0048C50.4806 25.9071 50.2151 26.1347 50.2151 26.5106C50.2151 26.8554 50.4737 27.1726 51.0048 27.1726C51.5599 27.1726 52.0737 26.8864 52.0737 26.1933Z"/><path d="M56.7979 24.2383H56.2841C55.6496 24.2383 55.2358 24.6038 55.2358 25.6142V27.828H54.2565V23.3659H55.2152V24.0797C55.3841 23.5866 55.8289 23.29 56.4496 23.29C56.56 23.29 56.6772 23.3004 56.7945 23.3211V24.2383H56.7979Z"/><path d="M58.8669 21.5659V23.3659H59.9151V24.1763H58.8669V26.6763C58.8669 26.9832 59.0945 27.0418 59.322 27.0418C59.6669 27.0418 59.9255 27.0004 59.9255 27.0004V27.8211C59.9255 27.8211 59.4393 27.8694 59.0738 27.8694C58.5393 27.8694 57.8772 27.7591 57.8772 26.8901V24.1728H57.1462V23.3625H57.8772V21.5625H58.8669V21.5659Z"/><path d="M65.0841 25.8963H61.5738C61.6531 26.5791 62.129 27.0825 62.829 27.0825C63.2531 27.0825 63.6497 26.9136 63.8772 26.5687L64.9945 26.5998C64.5979 27.4791 63.7772 27.9446 62.829 27.9446C61.5048 27.9446 60.5255 26.9549 60.5255 25.5929C60.5255 24.2274 61.4841 23.248 62.8014 23.248C63.9979 23.248 65.0841 24.048 65.0841 25.8894V25.8963ZM61.5738 25.1756H63.9772C63.929 24.6032 63.4634 24.1067 62.8117 24.1067C62.1497 24.1067 61.6945 24.5446 61.5738 25.1756Z"/><path d="M68.5152 24.5722C68.1772 24.2446 67.6841 24.0894 67.3497 24.0894C66.9634 24.0894 66.7669 24.2963 66.7669 24.5032C66.7669 24.7515 66.8772 24.8687 67.1807 24.9791L67.9531 25.2446C68.7841 25.5308 69.129 25.986 69.129 26.5412C69.129 27.2549 68.5841 27.9446 67.4669 27.9446C66.7359 27.9446 66.0117 27.648 65.5876 27.2412L66.1703 26.4791C66.5083 26.8136 67.029 27.0618 67.4462 27.0618C67.8428 27.0618 68.0979 26.8929 68.0979 26.6274C68.0979 26.3412 67.96 26.2239 67.4634 26.0549L66.7221 25.7963C66.0979 25.5791 65.7531 25.1136 65.7531 24.5618C65.7531 23.9101 66.3152 23.248 67.3841 23.248C67.9083 23.248 68.6117 23.4549 69.0738 23.8894L68.5152 24.5722Z"/><path d="M73.8531 27.083C74.3669 27.083 74.7634 26.8348 74.991 26.4313L75.8427 26.8658C75.4875 27.5279 74.7048 27.9451 73.8565 27.9451C72.5324 27.9451 71.4944 26.9658 71.4944 25.6003C71.4944 24.2244 72.5324 23.2451 73.8565 23.2451C74.7082 23.2451 75.4875 23.6589 75.8427 24.3244L74.991 24.7589C74.7634 24.352 74.3669 24.1072 73.8531 24.1072C73.0427 24.1072 72.4876 24.7486 72.4876 25.6003C72.491 26.452 73.0427 27.083 73.8531 27.083Z"/><path d="M79.2634 24.2383H78.7496C78.1152 24.2383 77.7014 24.6038 77.7014 25.6142V27.828H76.722V23.3659H77.6807V24.0797C77.8496 23.5866 78.2945 23.29 78.9151 23.29C79.0255 23.29 79.1427 23.3004 79.26 23.3211V24.2383H79.2634Z"/><path d="M84.2359 25.8963H80.7255C80.8048 26.5791 81.2807 27.0825 81.9807 27.0825C82.4048 27.0825 82.8014 26.9136 83.029 26.5687L84.1462 26.5998C83.7497 27.4791 82.929 27.9446 81.9807 27.9446C80.6566 27.9446 79.6772 26.9549 79.6772 25.5929C79.6772 24.2274 80.6359 23.248 81.9531 23.248C83.1497 23.248 84.2359 24.048 84.2359 25.8894V25.8963ZM80.7255 25.1756H83.129C83.0807 24.6032 82.6152 24.1067 81.9634 24.1067C81.2979 24.1067 80.8462 24.5446 80.7255 25.1756Z"/><path d="M87.6565 24.8313C87.6565 24.3554 87.3013 24.1106 86.7255 24.1106C86.2427 24.1106 85.8048 24.3175 85.4703 24.5864L85.0048 23.8554C85.3806 23.5278 86.0117 23.252 86.7944 23.252C87.9703 23.252 88.6427 23.9037 88.6427 24.8554V27.8313H87.6531V27.3657C87.3944 27.7795 86.8427 27.9485 86.3772 27.9485C85.3599 27.9485 84.7668 27.3657 84.7668 26.5451C84.7668 25.6761 85.3806 25.1795 86.3772 25.1795H87.3358C87.5634 25.1795 87.6531 25.0795 87.6531 24.9037V24.8313H87.6565ZM87.6565 26.1933V25.8071C87.5668 25.8761 87.4082 25.9071 87.1806 25.9071H86.5875C86.0634 25.9071 85.7979 26.1347 85.7979 26.5106C85.7979 26.8554 86.0565 27.1726 86.5875 27.1726C87.1427 27.1726 87.6565 26.8864 87.6565 26.1933Z"/><path d="M91.0978 21.5659V23.3659H92.146V24.1763H91.0978V26.6763C91.0978 26.9832 91.3254 27.0418 91.5529 27.0418C91.8978 27.0418 92.1564 27.0004 92.1564 27.0004V27.8211C92.1564 27.8211 91.6702 27.8694 91.3047 27.8694C90.7702 27.8694 90.1081 27.7591 90.1081 26.8901V24.1728H89.3771V23.3625H90.1081V21.5625H91.0978V21.5659Z"/><path d="M94.2427 27.828H93.253V24.1763H92.5806V23.3659H94.2427V27.828ZM93.6875 21.0625C94.0737 21.0625 94.391 21.3797 94.391 21.7659C94.391 22.1522 94.0737 22.4591 93.6875 22.4591C93.3013 22.4591 92.9944 22.1522 92.9944 21.7659C92.9944 21.3797 93.3013 21.0625 93.6875 21.0625Z"/><path d="M97.2772 26.8859L98.4738 23.3652H99.5221L97.8807 27.8239H96.6359L95.0531 23.3652H96.1496L97.2772 26.8859Z"/><path d="M102.725 24.8313C102.725 24.3554 102.37 24.1106 101.794 24.1106C101.308 24.1106 100.874 24.3175 100.539 24.5864L100.074 23.8554C100.45 23.5278 101.081 23.252 101.863 23.252C103.039 23.252 103.712 23.9037 103.712 24.8554V27.8313H102.722V27.3657C102.463 27.7795 101.912 27.9485 101.446 27.9485C100.429 27.9485 99.8358 27.3657 99.8358 26.5451C99.8358 25.6761 100.45 25.1795 101.446 25.1795H102.405C102.632 25.1795 102.722 25.0795 102.722 24.9037V24.8313H102.725ZM102.725 26.1933V25.8071C102.636 25.8761 102.477 25.9071 102.25 25.9071H101.657C101.132 25.9071 100.867 26.1347 100.867 26.5106C100.867 26.8554 101.125 27.1726 101.657 27.1726C102.212 27.1726 102.725 26.8864 102.725 26.1933Z"/><path d="M107.45 24.5722C107.112 24.2446 106.619 24.0894 106.284 24.0894C105.898 24.0894 105.701 24.2963 105.701 24.5032C105.701 24.7515 105.812 24.8687 106.115 24.9791L106.888 25.2446C107.719 25.5308 108.063 25.986 108.063 26.5412C108.063 27.2549 107.519 27.9446 106.401 27.9446C105.67 27.9446 104.946 27.648 104.522 27.2412L105.105 26.4791C105.443 26.8136 105.963 27.0618 106.381 27.0618C106.777 27.0618 107.032 26.8929 107.032 26.6274C107.032 26.3412 106.894 26.2239 106.398 26.0549L105.657 25.7963C105.032 25.5791 104.688 25.1136 104.688 24.5618C104.688 23.9101 105.25 23.248 106.319 23.248C106.843 23.248 107.546 23.4549 108.008 23.8894L107.45 24.5722Z"/><path d="M50.8876 38.2789H50.691L49.0979 33.8203H50.2048L51.322 37.3307L52.4876 33.8203H53.5462L51.6565 39.0031C51.4186 39.6445 51.0427 40.0031 50.2531 40.0031H49.56V39.1927H50.1048C50.46 39.1927 50.6289 39.0755 50.7565 38.6893L50.8876 38.2789Z"/><path d="M57.4703 32.021V33.821H58.5186V34.6314H57.4703V37.1314C57.4703 37.4383 57.6979 37.4969 57.9255 37.4969C58.2703 37.4969 58.5289 37.4555 58.5289 37.4555V38.2762C58.5289 38.2762 58.0427 38.3245 57.6772 38.3245C57.1427 38.3245 56.4807 38.2141 56.4807 37.3452V34.6279H55.7496V33.8176H56.4807V32.0176H57.4703V32.021Z"/><path d="M63.691 36.3485H60.1807C60.26 37.0312 60.7358 37.5347 61.4358 37.5347C61.86 37.5347 62.2565 37.3657 62.4841 37.0209L63.6013 37.0519C63.2048 37.9312 62.3841 38.3967 61.4358 38.3967C60.1117 38.3967 59.1324 37.4071 59.1324 36.045C59.1324 34.6795 60.091 33.7002 61.4082 33.7002C62.6048 33.7002 63.691 34.5002 63.691 36.3416V36.3485ZM60.1807 35.6278H62.5841C62.5358 35.0554 62.0703 34.5588 61.4186 34.5588C60.7531 34.5588 60.2979 34.9967 60.1807 35.6278Z"/><path d="M66.6358 37.5381C67.1496 37.5381 67.5462 37.2898 67.7738 36.8864L68.6255 37.3209C68.2703 37.983 67.4876 38.4002 66.6393 38.4002C65.3151 38.4002 64.2772 37.4209 64.2772 36.0554C64.2772 34.6795 65.3151 33.7002 66.6393 33.7002C67.491 33.7002 68.2703 34.114 68.6255 34.7795L67.7738 35.214C67.5462 34.8071 67.1496 34.5623 66.6358 34.5623C65.8255 34.5623 65.2703 35.2036 65.2703 36.0554C65.2738 36.9036 65.8255 37.5381 66.6358 37.5381Z"/><path d="M70.4634 34.0761C70.4634 34.2036 70.4634 34.283 70.4531 34.3726C70.829 33.9381 71.3428 33.7002 71.9083 33.7002C72.9565 33.7002 73.5703 34.3519 73.5703 35.3726V38.2795H72.5807V35.5105C72.5807 34.8761 72.1945 34.5795 71.7014 34.5795C71.2772 34.5795 70.86 34.7967 70.4841 35.2312V38.2761H69.5048V33.8174H70.4634V34.0761Z"/><path d="M76.8321 33.7002C78.1459 33.7002 79.2149 34.6795 79.2149 36.045C79.2149 37.4105 78.1459 38.3967 76.8321 38.3967C75.5183 38.3967 74.4597 37.4071 74.4597 36.045C74.4563 34.6795 75.5149 33.7002 76.8321 33.7002ZM76.8321 34.5588C76.0218 34.5588 75.4563 35.1933 75.4563 36.0416C75.4563 36.8933 76.0183 37.5347 76.8321 37.5347C77.6425 37.5347 78.208 36.8933 78.208 36.0416C78.2046 35.1933 77.6425 34.5588 76.8321 34.5588Z"/><path d="M81.16 38.2796H80.1807V31.3555H81.16V38.2796Z"/><path d="M84.5048 33.7002C85.8186 33.7002 86.8876 34.6795 86.8876 36.045C86.8876 37.4105 85.8186 38.3967 84.5048 38.3967C83.191 38.3967 82.1324 37.4071 82.1324 36.045C82.1289 34.6795 83.1876 33.7002 84.5048 33.7002ZM84.5048 34.5588C83.6945 34.5588 83.1289 35.1933 83.1289 36.0416C83.1289 36.8933 83.691 37.5347 84.5048 37.5347C85.3152 37.5347 85.8807 36.8933 85.8807 36.0416C85.8772 35.1933 85.3152 34.5588 84.5048 34.5588Z"/><path d="M92.2462 33.817V38.6308C92.2462 39.3239 91.9013 39.9963 90.8427 39.9963H88.9738V39.1859H90.6944C90.96 39.1859 91.2565 39.117 91.2565 38.7101V37.6135C91.0186 38.048 90.4151 38.3756 89.7634 38.3756C88.4772 38.3756 87.5289 37.4066 87.5289 36.0411C87.5289 34.6653 88.46 33.6963 89.7531 33.6963C90.4048 33.6963 91.0186 34.0342 91.2669 34.479C91.2669 34.379 91.2565 34.2721 91.2565 34.1342V33.817H92.2462ZM89.9117 37.5377C90.7324 37.5377 91.2945 36.8963 91.2945 36.0446C91.2945 35.1825 90.7324 34.5411 89.9117 34.5411C89.1013 34.5411 88.5358 35.1825 88.5358 36.0446C88.5358 36.8928 89.1013 37.5377 89.9117 37.5377Z"/><path d="M94.6772 38.2796H93.6979V34.6313H93.0151V33.821H94.6772V38.2796ZM93.7875 31.3555H95.0151L94.1634 33.0279H93.2151L93.7875 31.3555Z"/><path d="M98.4531 35.2824C98.4531 34.8066 98.0979 34.5617 97.522 34.5617C97.0358 34.5617 96.6013 34.7686 96.2669 35.0376L95.8013 34.3066C96.1772 33.979 96.8082 33.7031 97.591 33.7031C98.7669 33.7031 99.4393 34.3548 99.4393 35.3066V38.2824H98.4496V37.8169C98.191 38.2307 97.6393 38.3997 97.1738 38.3997C96.1565 38.3997 95.5634 37.8169 95.5634 36.9962C95.5634 36.1273 96.1772 35.6307 97.1738 35.6307H98.1324C98.36 35.6307 98.4496 35.5307 98.4496 35.3548V35.2824H98.4531ZM98.4531 36.648V36.2617C98.3634 36.3307 98.2048 36.3617 97.9772 36.3617H97.3841C96.86 36.3617 96.5944 36.5893 96.5944 36.9652C96.5944 37.31 96.8531 37.6273 97.3841 37.6273C97.9393 37.6238 98.4531 37.3376 98.4531 36.648Z"/></g><defs><clipPath id="jclip0_1003_459"><rect width="108.076" height="40"/></clipPath></defs></symbol><symbol viewBox="0 0 224 82" id="logo-footer" xmlns="http://www.w3.org/2000/svg"><path d="M2.9163 0.636152L5.91122 3.10301V14.2215H22.1009L24.3025 16.9641L22.0938 19.5723H5.91122V30.2031L2.9163 32.6699L0 30.2031V3.10301L2.9163 0.636152ZM11.6723 28.6551H24.0165L26.0823 31.2563L23.8807 34.0059H11.6723L9.6781 31.4683L11.6723 28.6551ZM12.1012 0H23.8736L26.0751 2.74252L23.8736 5.35075H12.2442L9.89253 2.82027L12.1012 0ZM77.7107 5.28006L80.3482 8.09327L77.7107 10.9135H37.8475L35.2815 8.09327L37.8475 5.28006H77.7107ZM33.1443 16.9711L35.6317 14.8577L38.1263 16.9711V20.0741C38.1263 25.2835 39.5487 29.574 45.8888 29.574H47.1682C52.865 29.574 55.9957 25.7712 55.9957 19.855V16.9004L58.4188 14.787L60.9134 16.8298V20.0671C60.9134 25.3471 62.4788 29.2913 68.6044 29.2913H69.6694C75.6521 29.2913 76.7171 24.7817 76.7886 19.855V16.6884L79.2117 14.7163L81.7706 16.7591V19.9257C81.6992 26.7537 79.8479 34.5713 69.8839 34.5713H68.8188C62.9076 34.5713 59.7054 31.9631 58.426 28.7258C56.9321 32.0338 52.9436 34.9247 47.5327 34.9247H46.2461C35.9962 34.9247 33.2229 28.8035 33.1514 20.2084V16.9711H33.1443ZM53.5083 67.934L52.0859 64.1312L55.7884 63.078L68.8188 68.9165V56.8791L71.4564 54.6949L74.1582 56.8791V71.454L78.9973 73.6381L80.3482 77.1582L76.5742 78.4941L53.5083 67.934ZM76.7171 42.2334L80.2767 43.8521L79.1402 47.4428L47.0967 62.1591L43.2512 60.6818L44.8166 57.0204L76.7171 42.2334ZM30.4853 62.3005L33.616 64.838C33.3301 73.7795 25.5676 78.4941 16.3899 78.4941H15.4607C10.9004 78.4941 5.56812 76.8047 2.15148 73.5674L2.50887 69.9767L5.85403 69.5526C8.34861 71.6661 11.8367 73.1433 15.1104 73.1433H16.1111C22.3082 73.1433 27.0758 70.6129 27.5761 64.626L30.4853 62.3005ZM27.5618 56.455C27.2759 50.256 22.5798 47.7962 16.0968 47.7962H15.0961C11.2506 47.7962 8.33431 49.2735 5.83974 51.3869L2.49458 50.9628L2.13719 47.3721C5.55383 44.0641 10.3214 42.5162 15.3105 42.5162H16.3041C25.5605 42.5162 33.323 47.1671 33.6017 56.2429L30.471 58.7098L27.5618 56.455Z"/><path d="M111.53 10.2349H104.253C104.418 11.6344 105.404 12.6664 106.855 12.6664C107.734 12.6664 108.556 12.3201 109.028 11.6132L111.344 11.6768C110.522 13.4793 108.821 14.4335 106.855 14.4335C104.11 14.4335 102.08 12.4049 102.08 9.61288C102.08 6.81381 104.067 4.8064 106.798 4.8064C109.278 4.8064 111.53 6.44625 111.53 10.2208V10.2349ZM104.253 8.75761H109.235C109.135 7.58426 108.17 6.56642 106.819 6.56642C105.44 6.56642 104.496 7.45703 104.253 8.75761Z"/><path d="M118.641 7.52065C117.941 6.84915 116.919 6.53108 116.225 6.53108C115.425 6.53108 115.018 6.95518 115.018 7.37928C115.018 7.8882 115.246 8.12852 115.875 8.35471L117.476 8.89897C119.198 9.48565 119.913 10.4187 119.913 11.5567C119.913 13.0198 118.784 14.4335 116.468 14.4335C114.953 14.4335 113.452 13.8256 112.573 12.9916L113.781 11.4294C114.481 12.1151 115.561 12.624 116.425 12.624C117.247 12.624 117.776 12.2776 117.776 11.7334C117.776 11.1467 117.49 10.9064 116.461 10.56L114.925 10.0299C113.631 9.5846 112.916 8.63038 112.916 7.49944C112.916 6.16352 114.081 4.8064 116.297 4.8064C117.383 4.8064 118.841 5.2305 119.799 6.12111L118.641 7.52065Z"/><path d="M126.118 12.6664C127.183 12.6664 128.005 12.1575 128.477 11.3305L130.243 12.2211C129.506 13.5782 127.884 14.4335 126.125 14.4335C123.381 14.4335 121.229 12.4261 121.229 9.627C121.229 6.80673 123.381 4.79932 126.125 4.79932C127.891 4.79932 129.506 5.64752 130.243 7.01171L128.477 7.90233C128.005 7.06826 127.183 6.56641 126.118 6.56641C124.439 6.56641 123.288 7.88112 123.288 9.627C123.288 11.3729 124.439 12.6664 126.118 12.6664Z"/><path d="M131.915 10.8641V5.04688H133.966V10.6026C133.966 12.0445 134.931 12.6878 136.139 12.6878C137.347 12.6878 138.312 12.0375 138.312 10.6026V5.04688H140.341V10.8641C140.341 12.7867 138.805 14.4337 136.139 14.4337C133.473 14.4337 131.915 12.7867 131.915 10.8641Z"/><path d="M151.614 10.2349H144.338C144.502 11.6344 145.489 12.6664 146.94 12.6664C147.819 12.6664 148.641 12.3201 149.113 11.6132L151.429 11.6768C150.607 13.4793 148.905 14.4335 146.94 14.4335C144.195 14.4335 142.165 12.4049 142.165 9.61288C142.165 6.81381 144.152 4.8064 146.883 4.8064C149.363 4.8064 151.614 6.44625 151.614 10.2208V10.2349ZM144.338 8.75761H149.32C149.22 7.58426 148.255 6.56642 146.904 6.56642C145.524 6.56642 144.581 7.45703 144.338 8.75761Z"/><path d="M155.545 14.1862H153.516V0H155.545V14.1862Z"/><path d="M163.436 8.0437C163.436 7.06827 162.7 6.56642 161.507 6.56642C160.506 6.56642 159.598 6.99052 158.905 7.54185L157.94 6.04336C158.719 5.37186 160.027 4.8064 161.649 4.8064C164.087 4.8064 165.48 6.14232 165.48 8.09318V14.1932H163.429V13.2389C162.893 14.0871 161.749 14.4335 160.785 14.4335C158.676 14.4335 157.447 13.2389 157.447 11.5567C157.447 9.77545 158.719 8.75761 160.785 8.75761H162.772C163.243 8.75761 163.429 8.55263 163.429 8.19214V8.0437H163.436ZM163.436 10.8428V10.0511C163.25 10.1925 162.922 10.2561 162.45 10.2561H161.221C160.134 10.2561 159.584 10.7226 159.584 11.4931C159.584 12.1999 160.12 12.8502 161.221 12.8502C162.371 12.8502 163.436 12.2635 163.436 10.8428Z"/><path d="M104.725 35.6103H102.695V21.4241H104.725V27.828C105.218 26.9162 106.505 26.2235 107.863 26.2235C110.55 26.2235 112.494 28.2309 112.494 31.03C112.494 33.829 110.507 35.8506 107.82 35.8506C106.49 35.8506 105.239 35.2003 104.725 34.2885V35.6103ZM104.661 31.03C104.661 32.7759 105.826 34.1118 107.527 34.1118C109.207 34.1118 110.393 32.7759 110.393 31.03C110.393 29.2841 109.207 27.9694 107.527 27.9694C105.826 27.9694 104.661 29.2912 104.661 31.03Z"/><path d="M119.728 28.2522H118.663C117.348 28.2522 116.49 29.0014 116.49 31.0724V35.6103H114.46V26.4709H116.447V27.9341C116.797 26.9233 117.719 26.3154 119.006 26.3154C119.234 26.3154 119.477 26.3366 119.72 26.379V28.2522H119.728Z"/><path d="M123.866 35.6103H121.815V28.132H120.422V26.4709H123.866V35.6103ZM122.716 21.7493C123.516 21.7493 124.174 22.3996 124.174 23.1912C124.174 23.9829 123.516 24.612 122.716 24.612C121.915 24.612 121.279 23.9829 121.279 23.1912C121.279 22.3996 121.915 21.7493 122.716 21.7493Z"/><path d="M129.048 22.7812V26.4709H131.221V28.132H129.048V33.2566C129.048 33.8856 129.52 34.0058 129.992 34.0058C130.707 34.0058 131.243 33.921 131.243 33.921V35.6032C131.243 35.6032 130.235 35.7022 129.477 35.7022C128.369 35.7022 126.997 35.476 126.997 33.6948V28.132H125.482V26.4709H126.997V22.7812H129.048Z"/><path d="M138.355 29.4749C138.355 28.4995 137.618 27.9976 136.425 27.9976C135.417 27.9976 134.517 28.4217 133.823 28.9731L132.859 27.4746C133.638 26.8031 134.946 26.2376 136.568 26.2376C139.005 26.2376 140.399 27.5735 140.399 29.5244V35.6244H138.347V34.6702C137.811 35.5184 136.668 35.8647 135.703 35.8647C133.595 35.8647 132.365 34.6702 132.365 32.9879C132.365 31.2067 133.638 30.1888 135.703 30.1888H137.69C138.162 30.1888 138.347 29.9839 138.347 29.6234V29.4749H138.355ZM138.355 32.2669V31.4753C138.169 31.6166 137.84 31.6803 137.368 31.6803H136.139C135.053 31.6803 134.502 32.1468 134.502 32.9172C134.502 33.6241 135.038 34.2743 136.139 34.2743C137.29 34.2743 138.355 33.6877 138.355 32.2669ZM135.996 21.4241H138.54L136.775 24.8522H134.81L135.996 21.4241Z"/><path d="M144.874 27.0012C144.874 27.2627 144.874 27.4253 144.852 27.609C145.631 26.7184 146.696 26.2307 147.868 26.2307C150.041 26.2307 151.313 27.5666 151.313 29.6589V35.6175H149.262V29.9416C149.262 28.641 148.462 28.0331 147.44 28.0331C146.56 28.0331 145.696 28.4784 144.917 29.3691V35.6104H142.887V26.471H144.874V27.0012Z"/><path d="M156.246 35.6103H154.195V28.132H152.801V26.4709H156.246V35.6103ZM155.095 21.7493C155.896 21.7493 156.553 22.3996 156.553 23.1912C156.553 23.9829 155.896 24.612 155.095 24.612C154.295 24.612 153.659 23.9829 153.659 23.1912C153.666 22.3996 154.295 21.7493 155.095 21.7493Z"/><path d="M163.094 34.0907C164.159 34.0907 164.981 33.5818 165.453 32.7548L167.218 33.6454C166.482 35.0025 164.859 35.8578 163.101 35.8578C160.356 35.8578 158.205 33.8504 158.205 31.0513C158.205 28.231 160.356 26.2236 163.101 26.2236C164.866 26.2236 166.482 27.0718 167.218 28.436L165.453 29.3266C164.981 28.4926 164.159 27.9907 163.094 27.9907C161.414 27.9907 160.263 29.3054 160.263 31.0513C160.263 32.7972 161.407 34.0907 163.094 34.0907Z"/><path d="M174.279 29.4751C174.279 28.4997 173.543 27.9978 172.35 27.9978C171.349 27.9978 170.441 28.4219 169.748 28.9732L168.783 27.4748C169.562 26.8033 170.87 26.2378 172.493 26.2378C174.93 26.2378 176.323 27.5737 176.323 29.5246V35.6246H174.272V34.6703C173.736 35.5185 172.593 35.8649 171.628 35.8649C169.519 35.8649 168.29 34.6703 168.29 32.9881C168.29 31.2068 169.562 30.189 171.628 30.189H173.615C174.086 30.189 174.272 29.984 174.272 29.6235V29.4751H174.279ZM174.279 32.2671V31.4754C174.094 31.6168 173.765 31.6804 173.293 31.6804H172.064C170.977 31.6804 170.427 32.1469 170.427 32.9174C170.427 33.6242 170.963 34.2745 172.064 34.2745C173.214 34.2745 174.279 33.6878 174.279 32.2671Z"/><path d="M190.348 34.2744C189.855 35.1862 188.604 35.8577 187.253 35.8577C184.566 35.8577 182.6 33.829 182.6 31.037C182.6 28.238 184.53 26.2306 187.21 26.2306C188.583 26.2306 189.855 26.9233 190.37 27.8351C190.348 27.206 190.348 26.4568 190.348 25.7499V21.4312H192.4V35.6173H190.348V34.2744ZM184.694 31.03C184.694 32.7759 185.859 34.1118 187.561 34.1118C189.24 34.1118 190.427 32.7759 190.427 31.03C190.427 29.2841 189.24 27.9694 187.561 27.9694C185.859 27.9694 184.694 29.2912 184.694 31.03Z"/><path d="M203.815 31.6592H196.538C196.703 33.0587 197.689 34.0907 199.14 34.0907C200.019 34.0907 200.841 33.7444 201.313 33.0375L203.629 33.1012C202.807 34.9036 201.106 35.8578 199.14 35.8578C196.395 35.8578 194.365 33.8292 194.365 31.0372C194.365 28.2381 196.352 26.2307 199.083 26.2307C201.563 26.2307 203.815 27.8706 203.815 31.6451V31.6592ZM196.538 30.1819H201.52C201.42 29.0086 200.455 27.9907 199.104 27.9907C197.725 27.9907 196.781 28.8813 196.538 30.1819Z"/><path d="M107.941 50.8992C107.941 49.9237 107.205 49.4219 106.011 49.4219C105.003 49.4219 104.103 49.846 103.41 50.3973L102.445 48.8988C103.224 48.2273 104.532 47.6619 106.154 47.6619C108.591 47.6619 109.985 48.9978 109.985 50.9487V57.0486H107.934V56.0944C107.398 56.9426 106.254 57.289 105.289 57.289C103.181 57.289 101.952 56.0944 101.952 54.4121C101.952 52.6309 103.224 51.6131 105.289 51.6131H107.276C107.748 51.6131 107.934 51.4081 107.934 51.0476V50.8992H107.941ZM107.941 53.6912V52.8995C107.755 53.0409 107.426 53.1045 106.954 53.1045H105.725C104.639 53.1045 104.089 53.571 104.089 54.3415C104.089 55.0483 104.625 55.6986 105.725 55.6986C106.876 55.6986 107.941 55.1119 107.941 53.6912Z"/><path d="M117.733 49.6835H116.668C115.353 49.6835 114.496 50.4328 114.496 52.5038V57.0417H112.466V47.8953H114.453V49.3584C114.803 48.3476 115.725 47.7397 117.012 47.7397C117.24 47.7397 117.483 47.7609 117.726 47.8034V49.6835H117.733Z"/><path d="M122.022 44.2056V47.8952H124.195V49.5563H122.022V54.6809C122.022 55.3099 122.494 55.4301 122.966 55.4301C123.68 55.4301 124.216 55.3453 124.216 55.3453V57.0276C124.216 57.0276 123.209 57.1265 122.451 57.1265C121.343 57.1265 119.971 56.9003 119.971 55.1191V49.5492H118.456V47.8882H119.971V44.1985H122.022V44.2056Z"/><path d="M134.91 53.0833H127.634C127.798 54.4828 128.784 55.5148 130.235 55.5148C131.115 55.5148 131.937 55.1685 132.408 54.4616L134.724 54.5252C133.902 56.3277 132.201 57.2819 130.235 57.2819C127.491 57.2819 125.461 55.2533 125.461 52.4613C125.461 49.6622 127.448 47.6548 130.178 47.6548C132.659 47.6548 134.91 49.2946 134.91 53.0691V53.0833ZM127.634 51.606H132.616C132.516 50.4327 131.551 49.4148 130.2 49.4148C128.827 49.4148 127.884 50.3125 127.634 51.606Z"/><path d="M142.021 50.369C141.321 49.6975 140.299 49.3795 139.606 49.3795C138.805 49.3795 138.398 49.8036 138.398 50.2277C138.398 50.7366 138.627 50.9769 139.256 51.2031L140.856 51.7474C142.579 52.334 143.294 53.2671 143.294 54.4051C143.294 55.8682 142.164 57.2819 139.849 57.2819C138.334 57.2819 136.833 56.674 135.954 55.8399L137.161 54.2778C137.862 54.9635 138.941 55.4724 139.806 55.4724C140.628 55.4724 141.157 55.126 141.157 54.5818C141.157 53.9951 140.871 53.7548 139.842 53.4084L138.305 52.8783C137.011 52.433 136.297 51.4788 136.297 50.3478C136.297 49.0119 137.462 47.6548 139.677 47.6548C140.764 47.6548 142.221 48.0789 143.179 48.9695L142.021 50.369Z"/><path d="M153.087 55.5148C154.152 55.5148 154.974 55.0059 155.446 54.1789L157.211 55.0695C156.475 56.4266 154.852 57.2819 153.094 57.2819C150.349 57.2819 148.198 55.2745 148.198 52.4754C148.198 49.6551 150.349 47.6477 153.094 47.6477C154.86 47.6477 156.475 48.4959 157.211 49.8601L155.446 50.7507C154.974 49.9166 154.152 49.4148 153.087 49.4148C151.407 49.4148 150.256 50.7295 150.256 52.4754C150.264 54.2213 151.407 55.5148 153.087 55.5148Z"/><path d="M164.301 49.6835H163.236C161.921 49.6835 161.064 50.4328 161.064 52.5038V57.0417H159.034V47.8953H161.021V49.3584C161.371 48.3476 162.293 47.7397 163.579 47.7397C163.808 47.7397 164.051 47.7609 164.294 47.8034V49.6835H164.301Z"/><path d="M174.609 53.0833H167.332C167.497 54.4828 168.483 55.5148 169.934 55.5148C170.813 55.5148 171.635 55.1685 172.107 54.4616L174.423 54.5252C173.601 56.3277 171.9 57.2819 169.934 57.2819C167.189 57.2819 165.159 55.2533 165.159 52.4613C165.159 49.6622 167.147 47.6548 169.877 47.6548C172.357 47.6548 174.609 49.2946 174.609 53.0691V53.0833ZM167.332 51.606H172.314C172.214 50.4327 171.249 49.4148 169.898 49.4148C168.519 49.4148 167.583 50.3125 167.332 51.606Z"/><path d="M181.699 50.8992C181.699 49.9237 180.963 49.4219 179.769 49.4219C178.768 49.4219 177.861 49.846 177.168 50.3973L176.203 48.8988C176.982 48.2273 178.29 47.6619 179.912 47.6619C182.349 47.6619 183.743 48.9978 183.743 50.9487V57.0486H181.692V56.0944C181.156 56.9426 180.012 57.289 179.047 57.289C176.939 57.289 175.71 56.0944 175.71 54.4121C175.71 52.6309 176.982 51.6131 179.047 51.6131H181.034C181.506 51.6131 181.692 51.4081 181.692 51.0476V50.8992H181.699ZM181.699 53.6912V52.8995C181.513 53.0409 181.184 53.1045 180.712 53.1045H179.483C178.397 53.1045 177.847 53.571 177.847 54.3415C177.847 55.0483 178.383 55.6986 179.483 55.6986C180.634 55.6986 181.699 55.1119 181.699 53.6912Z"/><path d="M188.832 44.2056V47.8952H191.005V49.5563H188.832V54.6809C188.832 55.3099 189.304 55.4301 189.776 55.4301C190.49 55.4301 191.026 55.3453 191.026 55.3453V57.0276C191.026 57.0276 190.019 57.1265 189.261 57.1265C188.153 57.1265 186.781 56.9003 186.781 55.1191V49.5492H185.266V47.8882H186.781V44.1985H188.832V44.2056Z"/><path d="M195.351 57.0417H193.3V49.5563H191.906V47.8952H195.351V57.0417ZM194.201 43.1736C195.001 43.1736 195.659 43.8239 195.659 44.6155C195.659 45.4072 195.001 46.0363 194.201 46.0363C193.4 46.0363 192.764 45.4072 192.764 44.6155C192.764 43.8239 193.4 43.1736 194.201 43.1736Z"/><path d="M201.642 55.1121L204.122 47.8953H206.295L202.893 57.0346H200.312L197.031 47.8953H199.304L201.642 55.1121Z"/><path d="M212.935 50.8992C212.935 49.9237 212.198 49.4219 211.005 49.4219C209.997 49.4219 209.097 49.846 208.403 50.3973L207.439 48.8988C208.218 48.2273 209.525 47.6619 211.148 47.6619C213.585 47.6619 214.979 48.9978 214.979 50.9487V57.0486H212.927V56.0944C212.391 56.9426 211.248 57.289 210.283 57.289C208.175 57.289 206.945 56.0944 206.945 54.4121C206.945 52.6309 208.218 51.6131 210.283 51.6131H212.27C212.742 51.6131 212.927 51.4081 212.927 51.0476V50.8992H212.935ZM212.935 53.6912V52.8995C212.749 53.0409 212.42 53.1045 211.948 53.1045H210.719C209.633 53.1045 209.082 53.571 209.082 54.3415C209.082 55.0483 209.618 55.6986 210.719 55.6986C211.87 55.6986 212.935 55.1119 212.935 53.6912Z"/><path d="M222.727 50.369C222.027 49.6975 221.005 49.3795 220.311 49.3795C219.511 49.3795 219.104 49.8036 219.104 50.2277C219.104 50.7366 219.332 50.9769 219.961 51.2031L221.562 51.7474C223.284 52.334 223.999 53.2671 223.999 54.4051C223.999 55.8682 222.87 57.2819 220.554 57.2819C219.039 57.2819 217.538 56.674 216.659 55.8399L217.867 54.2778C218.567 54.9635 219.647 55.4724 220.511 55.4724C221.333 55.4724 221.862 55.126 221.862 54.5818C221.862 53.9951 221.576 53.7548 220.547 53.4084L219.011 52.8783C217.717 52.433 217.002 51.4788 217.002 50.3478C217.002 49.0119 218.167 47.6548 220.383 47.6548C221.469 47.6548 222.927 48.0789 223.885 48.9695L222.727 50.369Z"/><path d="M105.483 78.4658H105.075L101.773 69.3264H104.067L106.383 76.522L108.799 69.3264H110.994L107.077 79.9502C106.583 81.2649 105.804 82 104.167 82H102.731V80.3389H103.86C104.596 80.3389 104.947 80.0986 105.211 79.3069L105.483 78.4658Z"/><path d="M119.127 65.6367V69.3264H121.3V70.9875H119.127V76.112C119.127 76.7411 119.599 76.8613 120.071 76.8613C120.785 76.8613 121.321 76.7764 121.321 76.7764V78.4587C121.321 78.4587 120.314 78.5577 119.556 78.5577C118.448 78.5577 117.076 78.3315 117.076 76.5503V70.9804H115.561V69.3193H117.076V65.6296H119.127V65.6367Z"/><path d="M132.022 74.5076H124.746C124.91 75.9071 125.897 76.9391 127.348 76.9391C128.227 76.9391 129.049 76.5928 129.521 75.8859L131.837 75.9495C131.015 77.752 129.313 78.7062 127.348 78.7062C124.603 78.7062 122.573 76.6776 122.573 73.8856C122.573 71.0865 124.56 69.0791 127.291 69.0791C129.771 69.0791 132.022 70.719 132.022 74.4935V74.5076ZM124.746 73.0303H129.728C129.628 71.857 128.663 70.8391 127.312 70.8391C125.932 70.8391 124.989 71.7368 124.746 73.0303Z"/><path d="M138.127 76.9462C139.192 76.9462 140.014 76.4373 140.485 75.6103L142.251 76.5009C141.515 77.858 139.892 78.7133 138.134 78.7133C135.389 78.7133 133.237 76.7059 133.237 73.9068C133.237 71.0865 135.389 69.0791 138.134 69.0791C139.899 69.0791 141.515 69.9273 142.251 71.2915L140.485 72.1821C140.014 71.348 139.192 70.8462 138.127 70.8462C136.447 70.8462 135.296 72.1609 135.296 73.9068C135.303 75.6456 136.447 76.9462 138.127 76.9462Z"/><path d="M146.06 69.8495C146.06 70.1111 146.06 70.2737 146.039 70.4574C146.818 69.5668 147.883 69.0791 149.055 69.0791C151.228 69.0791 152.5 70.415 152.5 72.5073V78.4659H150.449V72.79C150.449 71.4894 149.648 70.8815 148.626 70.8815C147.747 70.8815 146.882 71.3268 146.103 72.2174V78.4588H144.074V69.3194H146.06V69.8495Z"/><path d="M159.263 69.0791C161.986 69.0791 164.202 71.0865 164.202 73.8856C164.202 76.6846 161.986 78.7062 159.263 78.7062C156.539 78.7062 154.345 76.6776 154.345 73.8856C154.338 71.0865 156.532 69.0791 159.263 69.0791ZM159.263 70.8391C157.583 70.8391 156.411 72.1397 156.411 73.8785C156.411 75.6244 157.576 76.9391 159.263 76.9391C160.942 76.9391 162.115 75.6244 162.115 73.8785C162.107 72.1397 160.942 70.8391 159.263 70.8391Z"/><path d="M168.233 78.4657H166.203V64.2725H168.233V78.4657Z"/><path d="M175.166 69.0791C177.89 69.0791 180.105 71.0865 180.105 73.8856C180.105 76.6846 177.89 78.7062 175.166 78.7062C172.443 78.7062 170.249 76.6776 170.249 73.8856C170.242 71.0865 172.436 69.0791 175.166 69.0791ZM175.166 70.8391C173.487 70.8391 172.314 72.1397 172.314 73.8785C172.314 75.6244 173.479 76.9391 175.166 76.9391C176.846 76.9391 178.018 75.6244 178.018 73.8785C178.011 72.1397 176.846 70.8391 175.166 70.8391Z"/><path d="M191.213 69.3194V79.1868C191.213 80.6076 190.498 81.9859 188.304 81.9859H184.43V80.3248H187.997C188.547 80.3248 189.162 80.1835 189.162 79.3494V77.1017C188.668 77.9923 187.418 78.6638 186.067 78.6638C183.401 78.6638 181.435 76.6776 181.435 73.8785C181.435 71.0582 183.365 69.072 186.045 69.072C187.396 69.072 188.668 69.7647 189.183 70.6765C189.183 70.4716 189.162 70.2524 189.162 69.9697V69.3194H191.213ZM186.374 76.9462C188.075 76.9462 189.24 75.6315 189.24 73.8856C189.24 72.1185 188.075 70.8038 186.374 70.8038C184.694 70.8038 183.522 72.1185 183.522 73.8856C183.522 75.6244 184.694 76.9462 186.374 76.9462Z"/><path d="M196.252 78.4657H194.222V70.9874H192.807V69.3263H196.252V78.4657ZM194.408 64.2725H196.952L195.187 67.7006H193.222L194.408 64.2725Z"/><path d="M204.078 72.3235C204.078 71.3481 203.342 70.8462 202.149 70.8462C201.141 70.8462 200.241 71.2703 199.547 71.8216L198.582 70.3231C199.361 69.6517 200.669 69.0862 202.292 69.0862C204.729 69.0862 206.122 70.4221 206.122 72.373V78.473H204.071V77.5187C203.535 78.3669 202.392 78.7133 201.427 78.7133C199.319 78.7133 198.089 77.5187 198.089 75.8365C198.089 74.0552 199.361 73.0374 201.427 73.0374H203.414C203.885 73.0374 204.071 72.8324 204.071 72.4719V72.3235H204.078ZM204.078 75.1226V74.3309C203.893 74.4723 203.564 74.5359 203.092 74.5359H201.863C200.777 74.5359 200.226 75.0024 200.226 75.7728C200.226 76.4797 200.762 77.13 201.863 77.13C203.014 77.1229 204.078 76.5362 204.078 75.1226Z"/></symbol><symbol viewBox="0 0 20 20" id="search" xmlns="http://www.w3.org/2000/svg"><path fill-rule="evenodd" clip-rule="evenodd" d="M7.93983 0.0238375C7.8763 0.0331704 7.66836 0.063202 7.47776 0.0905539C6.66372 0.207446 5.69465 0.515848 4.91661 0.905658C2.35426 2.1894 0.636913 4.49181 0.0997044 7.36361C0.00391619 7.87545 -0.0328187 9.24863 0.0340436 9.81632C0.399083 12.9162 2.27922 15.5516 5.06521 16.8683C7.97393 18.2431 11.4682 17.9188 14.034 16.036L14.3754 15.7855L16.4832 17.8927L18.591 20L19.2955 19.2956L20 18.5912L17.8903 16.4814L15.7807 14.3717L15.9206 14.1942C16.2146 13.8213 16.5987 13.1836 16.8562 12.6408C17.6944 10.8736 17.9236 8.97137 17.5292 7.05466C16.8924 3.95955 14.6423 1.42969 11.6479 0.442155C10.6134 0.10095 9.89575 -0.00924344 8.77277 0.000597692C8.3782 0.00406288 8.00337 0.0145508 7.93983 0.0238375ZM10.0192 2.05545C10.615 2.15225 11.463 2.44027 12.041 2.74207C13.9305 3.72877 15.2416 5.51362 15.6394 7.64083C15.7555 8.26175 15.7552 9.49572 15.6388 10.0879C15.0836 12.9124 13.0145 15.0119 10.1877 15.6193C9.56444 15.7532 8.26966 15.7653 7.63948 15.6431C6.24623 15.373 4.98343 14.7182 4.01875 13.7656C1.32554 11.1061 1.25762 6.81445 3.86576 4.09747C4.81953 3.10393 5.93618 2.46093 7.26312 2.14116C8.14573 1.92849 9.06249 1.89998 10.0192 2.05545Z"/></symbol><symbol viewBox="0 0 41 41" id="star" xmlns="http://www.w3.org/2000/svg"><path d="M19.4448 0.950085L25.1961 15.8901L40.7912 19.5062L25.8512 25.2576L22.235 40.8526L16.4837 25.9126L0.888603 22.2965L15.8286 16.5451L19.4448 0.950085Z"/></symbol><symbol viewBox="0 0 120 120" id="sticker-confirm" xmlns="http://www.w3.org/2000/svg"><circle cx="60" cy="60" r="60"/><path d="M105.658 34.5481L98.0042 41.4707L99.129 43.9871L109.394 42.908L108.52 40.9522L100.6 41.8599L106.564 36.5755L105.658 34.5481Z"/><path d="M105.452 46.3001C102.582 46.8312 100.859 49.3017 101.391 52.1647C101.923 55.0278 104.42 56.7171 107.29 56.186C110.16 55.6549 111.883 53.1844 111.351 50.3213C110.819 47.4583 108.321 45.769 105.452 46.3001ZM106.896 54.0676C105.03 54.4129 103.6 53.5222 103.283 51.8146C102.965 50.1071 103.98 48.7638 105.846 48.4185C107.712 48.0732 109.142 48.9639 109.459 50.6714C109.777 52.379 108.762 53.7222 106.896 54.0676Z"/><path d="M107.389 57.8302C104.488 57.663 102.222 59.4419 102.049 62.4272C101.918 64.6955 103.051 66.4088 105.041 67.1253L105.733 65.1378C104.537 64.7419 103.894 63.8416 103.969 62.551C104.07 60.8041 105.474 59.878 107.264 59.9812C109.054 60.0844 110.339 61.2179 110.239 62.9517C110.165 64.2162 109.416 64.9316 108.196 65.1752L108.666 67.2427C110.679 66.888 112.029 65.3047 112.159 63.0625C112.328 60.1424 110.25 57.9952 107.389 57.8302Z"/><path d="M100.213 73.2286L101.586 68.0397L110.621 70.42L109.248 75.6089L107.679 75.1955L108.547 71.913L106.561 71.3896L105.752 74.4449L104.183 74.0315L104.991 70.9762L102.663 70.3628L101.794 73.6453L100.213 73.2286ZM112.409 74.9157C112.192 74.9847 111.941 75.0806 111.656 75.2035C111.377 75.3371 111.101 75.476 110.828 75.6202C110.556 75.7644 110.323 75.8923 110.131 76.0038L109.967 75.9605L110.298 74.7106C110.49 74.5273 110.71 74.3285 110.956 74.1143C111.211 73.9023 111.481 73.7168 111.767 73.558C111.597 73.2792 111.457 72.9902 111.346 72.691C111.236 72.3918 111.138 72.1139 111.053 71.8573L111.383 70.6074L111.548 70.6507C111.666 70.8529 111.805 71.0785 111.964 71.3277C112.13 71.5875 112.303 71.84 112.481 72.0851C112.666 72.341 112.836 72.5522 112.99 72.7189L112.409 74.9157Z"/><path d="M98.3837 77.9266L95.0399 83.8406L96.67 84.758L98.9849 80.6637L100.968 81.7801L99.4379 84.4869L101.068 85.4043L102.598 82.6975L104.274 83.6406L102.023 87.6212L103.654 88.5386L106.933 82.7384L98.3837 77.9266Z"/><path d="M95.4233 94.8668C97.0385 95.5738 98.5752 95.1663 99.8589 93.6671C101.219 92.0787 101.4 90.0176 100.027 88.8471C98.3753 87.4391 96.8143 88.5987 95.5652 89.595C94.699 90.2649 93.9959 90.885 93.3292 90.3167C92.7222 89.7993 92.9026 89.0257 93.5147 88.3109C94.2033 87.5067 95.0362 87.2377 96.035 87.78L96.9531 85.763C95.2568 84.9698 93.6023 85.4144 92.1741 87.0822C90.6864 88.8196 90.5902 90.7814 92.043 92.0198C93.6251 93.3684 95.1849 92.3107 96.4184 91.3527C97.3286 90.6516 98.0757 90.0003 98.7125 90.5431C99.2399 90.9927 99.1488 91.7222 98.5027 92.4768C97.8736 93.2114 97.0916 93.3005 96.3287 92.925L95.4233 94.8668Z"/><path d="M87.1457 92.2948L85.5043 93.5921L90.4048 99.7641L88.2094 101.499L89.404 103.004L95.4362 98.2362L94.2416 96.7316L92.0462 98.4668L87.1457 92.2948Z"/><path d="M77.2751 98.4831L78.8952 100.149L81.9238 98.6012L81.515 96.316L83.4137 95.3455L84.7569 105.179L82.602 106.28L75.3764 99.4535L77.2751 98.4831ZM81.6687 103.03C81.7752 103.142 81.9112 103.283 82.0767 103.453C82.2423 103.622 82.4098 103.796 82.5794 103.973C82.7489 104.151 82.8928 104.307 83.0112 104.442C82.9705 104.267 82.9254 104.046 82.8759 103.778C82.8227 103.521 82.7734 103.273 82.7282 103.032C82.6791 102.802 82.6482 102.637 82.6355 102.536L82.239 100.303L80.0724 101.411L81.6687 103.03ZM82.4511 109.394C82.5041 109.23 82.5801 109.025 82.6792 108.779C82.7782 108.532 82.8888 108.271 83.0109 107.993C83.1253 107.719 83.2437 107.453 83.366 107.195C83.4846 106.949 83.5918 106.737 83.6876 106.561L84.8408 105.972L84.9183 106.123C84.8697 106.334 84.8135 106.578 84.7499 106.855C84.6825 107.143 84.621 107.434 84.5653 107.727C84.5136 108.027 84.4772 108.29 84.456 108.516L82.5107 109.51L82.4511 109.394Z"/><path d="M71.3924 100.558L69.3584 101.054L71.6918 110.567L73.7258 110.07L71.3924 100.558Z"/><path d="M67.2799 101.715L65.3334 101.832L65.7452 108.649L61.0353 102.091L58.8144 102.224L59.405 112L61.3646 111.882L60.9559 105.117L65.6496 111.624L67.8704 111.491L67.2799 101.715Z"/><path d="M48.4731 108.18C48.7017 109.925 49.8459 111.027 51.7957 111.348C53.8618 111.688 55.7237 110.778 56.0179 109C56.3719 106.861 54.5698 106.127 53.0693 105.576C52.0467 105.182 51.1512 104.903 51.2941 104.039C51.4241 103.253 52.1811 103.008 53.1108 103.161C54.1568 103.333 54.8182 103.905 54.8694 105.039L57.0744 104.78C56.878 102.921 55.6411 101.738 53.4718 101.381C51.212 101.008 49.4792 101.94 49.1679 103.821C48.8289 105.87 50.5428 106.655 52.0025 107.213C53.0746 107.628 54.0196 107.929 53.8832 108.754C53.7702 109.437 53.0972 109.736 52.1158 109.574C51.1602 109.417 50.6795 108.795 50.6072 107.95L48.4731 108.18Z"/><path d="M47.1209 105.385C48.1937 102.691 47.2153 99.9853 44.43 98.8812C42.3136 98.0423 40.3268 98.5755 39.0183 100.235L40.691 101.516C41.4444 100.508 42.5033 100.183 43.7074 100.66C45.3373 101.306 45.7761 102.927 45.1141 104.59C44.452 106.252 42.9691 107.112 41.3514 106.471C40.1716 106.003 39.7271 105.068 39.8798 103.836L37.7649 103.63C37.4683 105.648 38.549 107.425 40.6411 108.255C43.3656 109.335 46.0627 108.043 47.1209 105.385Z"/><path d="M39.2803 96.7945L37.57 95.6118L35.5197 98.5632L34.2182 97.6631L34.4182 93.4324L32.482 92.0935L32.2709 96.9362C31.185 96.7572 30.1286 97.1547 29.4501 98.1314C28.3617 99.6983 28.8052 101.467 30.408 102.575L33.6888 104.844L39.2803 96.7945ZM31.5279 101.077C30.8717 100.624 30.7388 99.944 31.1712 99.3215C31.5962 98.7098 32.27 98.5879 32.9154 99.0342L34.4536 100.098L33.0446 102.126L31.5279 101.077Z"/><path d="M31.8079 91.2326L30.3008 89.7821L23.486 96.8306L24.9931 98.2811L31.8079 91.2326Z"/><path d="M27.3828 86.5684L26.1078 84.911L19.8472 89.705L18.142 87.4882L16.6158 88.6569L21.3012 94.7478L22.8274 93.5791L21.1222 91.3624L27.3828 86.5684Z"/><path d="M19.5823 84.4613C22.2291 83.2345 23.2824 80.4137 22.0528 77.7729C20.8231 75.1321 17.9833 74.1159 15.3364 75.3427C12.6895 76.5695 11.6362 79.3903 12.8659 82.0311C14.0955 84.6719 16.9354 85.6881 19.5823 84.4613ZM16.2462 77.2967C17.9673 76.499 19.5746 77.0066 20.308 78.5816C21.0414 80.1567 20.3935 81.7096 18.6724 82.5073C16.9514 83.305 15.344 82.7974 14.6107 81.2224C13.8773 79.6473 14.5251 78.0944 16.2462 77.2967Z"/><path d="M18.6767 69.2263L18.4654 67.2922L11.6608 68.0319L17.999 63.0214L17.758 60.8146L8 61.8754L8.21264 63.8226L14.9652 63.0885L8.67762 68.0804L8.91861 70.2871L18.6767 69.2263Z"/><path d="M17.6275 59.7834L17.8856 57.7101L15.3911 56.4537L15.825 52.9679L18.5517 52.3583L18.821 50.1943L8.62198 52.6676L8.34458 54.8964L17.6275 59.7834ZM13.5933 55.5335L10.7513 54.1025L13.8578 53.4084L13.5933 55.5335Z"/><path d="M19.8536 46.5681L20.6717 44.802L14.4583 41.9369L22.4782 40.9023L23.4116 38.8872L14.5013 34.7786L13.6777 36.5566L19.8436 39.3998L11.8768 40.4445L10.9434 42.4595L19.8536 46.5681Z"/><path d="M24.5801 37.0548L28.703 31.6525L27.214 30.5213L24.3596 34.2613L22.5478 32.8849L24.4349 30.4123L22.9458 29.2811L21.0588 31.7537L19.5281 30.5908L22.3032 26.9547L20.8142 25.8234L16.7705 31.1218L24.5801 37.0548Z"/><path d="M28.4938 22.4539L29.6142 27.1225L23.9033 22.5042L22.2922 23.8182L30.065 30.1279L31.7775 28.7313L30.8923 25.0513L34.3918 26.5991L36.1043 25.2025L31.4423 16.3556L29.8514 17.6531L33.2805 24.1492L28.8484 22.1646L28.4938 22.4539Z"/><path d="M41.8116 13.9043C40.6222 12.6048 39.0518 12.3559 37.2693 13.2073C35.3805 14.1093 34.3775 15.9202 35.1573 17.5456C36.0954 19.5007 37.9936 19.0719 39.5401 18.6662C40.6042 18.4041 41.4989 18.1216 41.8775 18.9107C42.2222 19.6292 41.7429 20.2634 40.893 20.6694C39.9368 21.1261 39.0661 21.0352 38.3733 20.1355L36.7147 21.6081C37.9431 23.0192 39.6362 23.2819 41.6194 22.3347C43.6853 21.3481 44.5702 19.5936 43.7452 17.874C42.8467 16.0013 40.9911 16.3374 39.4743 16.7144C38.3573 16.9872 37.4098 17.2805 37.0481 16.5267C36.7486 15.9025 37.1283 15.2724 38.0255 14.8439C38.899 14.4267 39.6501 14.6615 40.195 15.3133L41.8116 13.9043Z"/><path d="M46.4033 20.0415L52.6654 18.437L52.1869 16.5778L47.953 17.6626L45.9899 10.0362L43.9617 10.5559L46.4033 20.0415Z"/><path d="M54.0594 18.1987L60.8511 17.7651L60.7316 15.9016L56.0296 16.2018L55.8842 13.9344L58.9927 13.7359L58.8732 11.8725L55.7647 12.0709L55.6418 10.1553L60.2132 9.86346L60.0937 8L53.4325 8.4253L54.0594 18.1987Z"/><path d="M64.0606 18.0746L66.1387 18.332L67.1112 10.5182L69.8906 10.8625L70.1277 8.95764L62.4908 8.01147L62.2537 9.91634L65.0331 10.2607L64.0606 18.0746Z"/><path d="M71.8074 19.546L73.8022 20.1814L76.2025 12.6806L78.8706 13.5305L79.4557 11.7019L72.1247 9.36666L71.5395 11.1952L74.2076 12.0451L71.8074 19.546Z"/><path d="M77.1408 21.354L83.1406 24.5589L84.024 22.9127L79.8703 20.6939L80.9451 18.6908L83.6912 20.1577L84.5746 18.5115L81.8285 17.0447L82.7365 15.3524L86.7749 17.5095L87.6583 15.8633L81.7738 12.7201L77.1408 21.354Z"/><path d="M84.0988 25.1465L85.6961 26.4772L88.003 23.7209L89.2185 24.7336L88.6396 28.9295L90.4478 30.436L91.0928 25.6316C92.1582 25.9069 93.2461 25.6054 94.0094 24.6933C95.2342 23.2299 94.9511 21.429 93.4543 20.182L90.3903 17.6293L84.0988 25.1465ZM92.2045 21.5734C92.8173 22.0839 92.8886 22.7728 92.4021 23.3542C91.924 23.9255 91.2419 23.9866 90.6391 23.4845L89.2026 22.2876L90.788 20.3933L92.2045 21.5734Z"/><path d="M96.7072 30.582C97.1005 30.2927 97.4631 30.1232 97.7951 30.0737C98.1322 30.0311 98.4363 30.0832 98.7073 30.2299C98.9854 30.3715 99.2254 30.5789 99.4274 30.8521C99.6293 31.1254 99.7544 31.4119 99.8025 31.7118C99.8629 32.0135 99.8229 32.3187 99.6825 32.6275C99.5422 32.9363 99.2753 33.2353 98.8821 33.5246C98.4959 33.8088 98.1342 33.9721 97.797 34.0147C97.4599 34.0572 97.1523 34.0077 96.8742 33.8662C96.6013 33.7316 96.3639 33.5278 96.1619 33.2545C95.96 32.9813 95.8323 32.6912 95.779 32.3843C95.7257 32.0775 95.7692 31.7696 95.9095 31.4609C96.0551 31.1591 96.321 30.8661 96.7072 30.582Z"/><path fill-rule="evenodd" clip-rule="evenodd" d="M46.5754 41.8197C46.3235 41.8199 46.0736 41.8452 46.0203 41.876C45.9123 41.9384 58.2643 63.426 58.5743 63.7151C58.8062 63.9314 59.4793 64.1117 59.7883 64.0404C60.1981 63.9458 81.6424 51.5122 81.5804 51.4052C81.5498 51.3524 81.3307 51.1989 81.0934 51.0642C80.7096 50.8462 78.8018 50.3213 63.8477 46.3193C49.2824 42.4212 46.9723 41.8194 46.5754 41.8197ZM43.4919 43.466C43.2523 43.8183 43.0938 44.3821 40.2477 55.004C37.4016 65.6259 37.2569 66.1934 37.2883 66.6183C37.3065 66.864 37.3448 67.0713 37.3736 67.0791C37.4023 67.0867 40.8449 65.119 45.0235 62.7063L52.6211 58.3194L48.2348 50.7215C45.8224 46.5427 43.8249 43.1173 43.7962 43.1096C43.7674 43.1019 43.6305 43.2623 43.4919 43.466ZM75.2393 57.9574L67.6417 62.3442L72.028 69.9421C74.4405 74.1209 76.4379 77.5463 76.4666 77.554C76.4954 77.5617 76.6323 77.4013 76.7709 77.1976C77.0105 76.8454 77.169 76.2815 80.0151 65.6596C82.8613 55.0378 83.0059 54.4702 82.9745 54.0453C82.9564 53.7996 82.918 53.5923 82.8892 53.5846C82.8605 53.5769 79.418 55.5446 75.2393 57.9574ZM46.1729 64.8056C41.2819 67.6297 38.6465 69.1963 38.6825 69.2585C38.713 69.3113 38.9322 69.4647 39.1695 69.5995C39.5529 69.8172 41.4684 70.3449 56.378 74.3399C71.2876 78.3349 73.2102 78.8357 73.6512 78.8388C73.9241 78.8408 74.1907 78.8175 74.2435 78.787C74.3059 78.7511 72.8049 76.0734 69.9704 71.1639L65.6012 63.5961L63.2591 64.9338C61.1161 66.1578 60.8576 66.2832 60.2171 66.4098L59.5171 66.5481L58.5362 66.2853L57.5553 66.0224L57.0186 65.5516C56.529 65.1222 56.363 64.8774 55.1334 62.7735C54.3918 61.5046 53.7701 60.4623 53.7519 60.4575C53.7337 60.4526 50.3232 62.4092 46.1729 64.8056Z"/></symbol><symbol viewBox="0 0 17 17" id="time" xmlns="http://www.w3.org/2000/svg"><path fill-rule="evenodd" clip-rule="evenodd" d="M7.77824 0.518932C6.23305 0.670303 4.80492 1.23988 3.55276 2.20416C2.94299 2.67374 2.15111 3.55623 1.6935 4.27612C1.49586 4.58703 1.11115 5.37487 0.97333 5.75085C0.819236 6.17128 0.655001 6.81376 0.574183 7.31229C0.475272 7.92247 0.475272 9.08097 0.574183 9.69115C0.714035 10.5537 0.935268 11.2511 1.31394 12.0231C1.72768 12.8665 2.15788 13.4643 2.84677 14.1532C3.5357 14.8421 4.13355 15.2723 4.97695 15.6861C5.74895 16.0647 6.44627 16.286 7.30885 16.4258C7.91903 16.5247 9.07753 16.5247 9.68771 16.4258C10.5503 16.286 11.2476 16.0647 12.0196 15.6861C12.863 15.2723 13.4609 14.8421 14.1498 14.1532C14.8387 13.4643 15.2689 12.8665 15.6826 12.0231C15.9574 11.4628 16.0956 11.0957 16.2437 10.5327C16.4408 9.78289 16.4909 9.37188 16.4909 8.50172C16.4909 7.63156 16.4408 7.22055 16.2437 6.47077C16.0956 5.90776 15.9574 5.54061 15.6826 4.98038C15.2689 4.13699 14.8387 3.53914 14.1498 2.85021C13.4609 2.16131 12.863 1.73112 12.0196 1.31738C11.2484 0.939051 10.5372 0.713341 9.70336 0.58216C9.24327 0.509793 8.21592 0.47605 7.77824 0.518932ZM9.24289 1.77425C10.7692 1.94237 12.1664 2.61902 13.2737 3.72632C14.5728 5.02549 15.2592 6.67629 15.2592 8.50172C15.2592 10.3271 14.5728 11.9779 13.2737 13.2771C11.9745 14.5763 10.3237 15.2627 8.49828 15.2627C6.67285 15.2627 5.02205 14.5763 3.72288 13.2771C2.42371 11.9779 1.73732 10.3271 1.73732 8.50172C1.73732 6.67629 2.42371 5.02549 3.72288 3.72632C4.815 2.63421 6.22679 1.94443 7.71576 1.7755C8.06026 1.73644 8.89336 1.73575 9.24289 1.77425ZM8.22859 4.27339C8.07826 4.34166 7.95581 4.49068 7.90488 4.66738C7.8789 4.75759 7.87148 5.33934 7.87837 6.74888C7.88767 8.65434 7.88961 8.70843 7.95252 8.83038C8.00486 8.93182 8.25445 9.13559 9.26715 9.90381C9.95467 10.4253 10.58 10.8897 10.6568 10.9357C11.1802 11.2495 11.7988 10.6911 11.5339 10.1439C11.4705 10.0129 11.3446 9.90903 10.2938 9.12079L9.1243 8.24355V6.49925C9.1243 5.27849 9.11359 4.72303 9.08868 4.64857C8.99991 4.38348 8.77041 4.21489 8.49828 4.21489C8.42081 4.21489 8.29946 4.24122 8.22859 4.27339Z" stroke-width="0.2"/></symbol><symbol viewBox="0 0 32 32" id="youtube" xmlns="http://www.w3.org/2000/svg"><path fill-rule="evenodd" clip-rule="evenodd" d="M2.34315 2.34315C0 4.68629 0 8.45753 0 16C0 23.5425 0 27.3137 2.34315 29.6569C4.68629 32 8.45753 32 16 32C23.5425 32 27.3137 32 29.6569 29.6569C32 27.3137 32 23.5425 32 16C32 8.45753 32 4.68629 29.6569 2.34315C27.3137 0 23.5425 0 16 0C8.45753 0 4.68629 0 2.34315 2.34315ZM13.2558 22.0501L22.7729 16.3843C23.0998 16.1897 23.0983 15.7159 22.7701 15.5234L13.253 9.94161C12.9196 9.74611 12.5 9.98648 12.5 10.3729V21.6204C12.5 22.0083 12.9225 22.2485 13.2558 22.0501Z"/></symbol></svg>