<?xml version="1.0" encoding="utf-8"?><svg viewBox="0 0 1440 1050" xmlns="http://www.w3.org/2000/svg" xmlns:xlink="http://www.w3.org/1999/xlink"><style>:root>svg{display:none}:root>svg:target{display:block}</style><svg fill="none" viewBox="0 0 16 16" id="arrow" xmlns="http://www.w3.org/2000/svg">
    <path fill-rule="evenodd" clip-rule="evenodd" d="m.634 15.366.633.634 6.461-6.46 6.46-6.462v12.296H16l-.008-7.366-.009-7.366-.086-.165a1.009 1.009 0 0 0-.522-.44C15.285.01 13.278 0 7.938 0H.626v1.811H12.92l-6.46 6.46L0 14.734l.634.633Z" fill="#BEDB39"/>
</svg><svg fill="none" viewBox="0 0 17 17" id="date" xmlns="http://www.w3.org/2000/svg">
    <path fill-rule="evenodd" clip-rule="evenodd" d="M4.224.552a.601.601 0 0 0-.317.364 2.291 2.291 0 0 0-.031.422v.308l-.601.014c-.673.015-.848.052-1.225.258a2.262 2.262 0 0 0-.817.862C.98 3.297 1 2.76 1 8.863c0 6.093-.02 5.568.227 6.071.227.463.666.845 1.185 1.03l.262.094h11.652l.244-.085a2.15 2.15 0 0 0 1.376-1.481c.05-.186.054-.546.054-5.629 0-6.106.02-5.566-.234-6.085a2.122 2.122 0 0 0-.907-.904c-.357-.175-.618-.221-1.231-.221h-.504V1.34c0-.37-.033-.506-.155-.646-.263-.3-.767-.237-.939.119-.051.106-.062.188-.062.483v.356H5.036l-.01-.39C5.017.908 5.01.861 4.943.764a.575.575 0 0 0-.719-.213Zm-.343 2.614c.014.416.06.545.244.678.222.16.504.145.714-.04.163-.143.193-.242.193-.644v-.351h6.936v.35c0 .403.03.502.193.645.215.189.51.198.738.024.161-.123.207-.26.22-.662l.012-.357h.482c.412 0 .507.009.649.062a.94.94 0 0 1 .5.48l.082.173.01.935.01.936H2.136l.01-.936c.01-.817.017-.95.065-1.057a.97.97 0 0 1 .331-.426c.218-.145.31-.163.835-.165l.491-.002.012.357Zm10.97 7.21-.008 3.827-.079.167c-.095.2-.26.37-.45.463l-.14.07H2.826l-.14-.07a.98.98 0 0 1-.45-.461l-.08-.17-.008-3.825L2.14 6.55h12.72l-.008 3.826Z" fill="#AEAEAE" stroke="#AEAEAE" stroke-width=".2"/>
</svg><svg fill="none" viewBox="0 0 32 32" id="facebook" xmlns="http://www.w3.org/2000/svg">
    <path d="M2.343 2.343C0 4.686 0 8.458 0 16c0 7.543 0 11.314 2.343 13.657C4.653 31.966 8.348 32 15.673 32a.1.1 0 0 1-.1-.1v-12a.1.1 0 0 0-.1-.1H12.1a.1.1 0 0 1-.1-.1v-4.192a.1.1 0 0 1 .1-.1h3.374a.1.1 0 0 0 .1-.1v-3.652C15.574 8.707 17.685 6 22.549 6c1.683 0 2.99.124 3.336.16.052.006.09.05.088.102l-.11 3.912a.1.1 0 0 1-.1.098c-.356-.003-1.633-.013-3.009-.013-1.754 0-2.035.73-2.035 1.941v3.107a.1.1 0 0 0 .1.1h5.076a.1.1 0 0 1 .1.106l-.22 4.192a.1.1 0 0 1-.1.095H20.82a.1.1 0 0 0-.1.1v12a.1.1 0 0 1-.029.07c4.533-.097 7.17-.516 8.967-2.313C32 27.314 32 23.543 32 16c0-7.542 0-11.314-2.343-13.657S23.543 0 16 0C8.458 0 4.686 0 2.343 2.343Z" fill="#757778"/>
</svg><svg fill="none" viewBox="0 0 14 7" id="footer-arrow" xmlns="http://www.w3.org/2000/svg">
    <path d="M2.12 7 .5 6.225 7 0l6.5 6.225L11.88 7 7 2.326 2.12 7Z" fill="#FCFAF9" fill-opacity=".9"/>
</svg><svg fill="none" viewBox="0 0 32 32" id="in" xmlns="http://www.w3.org/2000/svg">
    <path fill-rule="evenodd" clip-rule="evenodd" d="M2.343 2.343C0 4.686 0 8.458 0 16c0 7.543 0 11.314 2.343 13.657S8.458 32 16 32c7.543 0 11.314 0 13.657-2.343S32 23.543 32 16c0-7.542 0-11.314-2.343-13.657S23.543 0 16 0C8.458 0 4.686 0 2.343 2.343ZM10.767 26.4a.1.1 0 0 1-.1.1H6.366a.1.1 0 0 1-.1-.1V13.106a.1.1 0 0 1 .1-.1h4.301a.1.1 0 0 1 .1.1V26.4Zm.297-17.569c0 1.295-.977 2.332-2.547 2.332h-.03C6.978 11.163 6 10.126 6 8.83 6 7.508 7.007 6.5 8.547 6.5c1.54 0 2.488 1.007 2.517 2.332ZM13.259 26.5c0-.065.056-11.706.004-13.396-.002-.057.044-.098.1-.098h4.297a.1.1 0 0 1 .1.1v1.81c.599-.92 1.67-2.227 4.057-2.227 2.962 0 5.183 1.929 5.183 6.074V26.4a.1.1 0 0 1-.1.1h-4.301a.1.1 0 0 1-.1-.1v-7.12c0-1.813-.652-3.05-2.28-3.05-1.244 0-1.985.834-2.31 1.64-.12.288-.149.691-.149 1.094V26.4a.1.1 0 0 1-.1.1H13.26Z" fill="#757778"/>
</svg><svg fill="none" viewBox="0 0 32 32" id="instagram" xmlns="http://www.w3.org/2000/svg">
    <path d="M17.437 21.42a5.29 5.29 0 0 1-3.618-.186 5.372 5.372 0 0 1-1.924-1.377 5.48 5.48 0 0 1-1.159-2.081 5.542 5.542 0 0 1 .674-4.616 5.41 5.41 0 0 1 1.705-1.649 5.291 5.291 0 0 1 4.57-.458 5.362 5.362 0 0 1 1.988 1.279 5.524 5.524 0 0 1 .674 6.897 5.378 5.378 0 0 1-2.91 2.191Z" fill="#757778"/>
    <path fill-rule="evenodd" clip-rule="evenodd" d="M2.343 2.343C0 4.686 0 8.458 0 16c0 7.543 0 11.314 2.343 13.657S8.458 32 16 32c7.543 0 11.314 0 13.657-2.343S32 23.543 32 16c0-7.542 0-11.314-2.343-13.657S23.543 0 16 0C8.458 0 4.686 0 2.343 2.343Zm10.366 6.08a8.267 8.267 0 0 0-2.685 1.822A8.478 8.478 0 0 0 7.6 16.191c0 2.23.872 4.37 2.424 5.946a8.209 8.209 0 0 0 5.851 2.463 8.21 8.21 0 0 0 5.852-2.463 8.42 8.42 0 0 0 1.794-2.728 8.527 8.527 0 0 0 0-6.435 8.42 8.42 0 0 0-1.794-2.729 8.267 8.267 0 0 0-2.685-1.822 8.161 8.161 0 0 0-6.333 0Zm13.725-.034a1.987 1.987 0 0 1-.448.646 1.94 1.94 0 0 1-1.371.542 1.942 1.942 0 0 1-1.355-.582 2.005 2.005 0 0 1-.573-1.378 2.007 2.007 0 0 1 .533-1.393 1.957 1.957 0 0 1 1.395-.624 1.93 1.93 0 0 1 1.412.582 1.993 1.993 0 0 1 .573 1.435c-.004.266-.06.529-.166.772Z" fill="#757778"/>
</svg><svg fill="none" viewBox="0 0 1440 1050" id="line-bg" xmlns="http://www.w3.org/2000/svg">
    <path d="M-143.127 205.594c207.059-91.13 1183.187-340.647 1234.087-77.813 65.31 337.265-698.311 672.118-815.124 448.111C121.179 279.312 1303.8 33.328 1447.52 281.618c143.72 248.29-215.89 565.793-1153.929 757.682" stroke="#F2F2F2" stroke-width="20" stroke-linecap="round"/>
</svg><svg fill="none" viewBox="0 0 278 326" id="line-bg-webinars" xmlns="http://www.w3.org/2000/svg">
    <path d="M91.038 397.779C57.026 354.862-44.324 142.037 40.756 114.854c109.172-34.88 234.207 123.467 163.172 163.739-94.05 53.321-198.39-207.81-119.94-255.766 78.45-47.956 189.685 17.294 271.39 224.607" stroke="#F2F2F2" stroke-opacity=".2" stroke-width="14" stroke-linecap="round"/>
</svg><svg fill="none" viewBox="0 0 109 40" id="logo" xmlns="http://www.w3.org/2000/svg">
    <g clip-path="url(#ja)" fill="#1B1F21">
        <path d="M1.407.475 2.852 1.68v5.424h7.81l1.062 1.338-1.065 1.272H2.852V14.9l-1.445 1.203L0 14.899V1.68L1.407.475Zm4.224 13.67h5.955l.997 1.268-1.062 1.342H5.63l-.962-1.238.962-1.373ZM5.838.164h5.68l1.061 1.338-1.062 1.272h-5.61L4.772 1.541 5.838.165ZM37.49 2.741l1.272 1.372L37.49 5.49H18.259L17.02 4.113l1.238-1.372h19.23Zm-21.5 5.703 1.2-1.03 1.203 1.03v1.514c0 2.541.686 4.635 3.745 4.635h.617c2.748 0 4.259-1.855 4.259-4.742V8.41l1.169-1.031 1.203.996v1.58c0 2.576.755 4.5 3.71 4.5h.514c2.887 0 3.4-2.2 3.435-4.604V8.306l1.169-.962 1.234.997v1.545c-.034 3.33-.927 7.145-5.734 7.145H33.2c-2.852 0-4.397-1.273-5.014-2.852-.72 1.614-2.645 3.024-5.255 3.024h-.62c-4.945 0-6.283-2.986-6.318-7.18V8.445h-.003Zm9.824 24.862-.686-1.855 1.786-.514 6.286 2.849v-5.873l1.272-1.065 1.304 1.065v7.11l2.334 1.066.652 1.717-1.82.652-11.128-5.152ZM37.01 20.77l1.718.79-.549 1.75-15.458 7.18-1.855-.72.755-1.787 15.39-7.213Zm-22.303 9.79 1.51 1.237c-.138 4.362-3.882 6.662-8.31 6.662h-.448c-2.2 0-4.773-.824-6.421-2.403l.172-1.752 1.614-.207c1.204 1.031 2.886 1.752 4.466 1.752h.482c2.99 0 5.29-1.235 5.531-4.155l1.404-1.135Zm-1.41-2.853c-.138-3.024-2.404-4.224-5.531-4.224h-.483c-1.855 0-3.262.721-4.466 1.752l-1.614-.207-.172-1.752c1.648-1.613 3.948-2.369 6.355-2.369h.48c4.465 0 8.21 2.27 8.344 6.697l-1.51 1.203-1.403-1.1ZM53.805 4.993h-3.51c.079.683.555 1.186 1.255 1.186.424 0 .82-.169 1.048-.514l1.117.031c-.396.88-1.217 1.345-2.165 1.345-1.325 0-2.304-.99-2.304-2.351 0-1.366.959-2.345 2.276-2.345 1.197 0 2.283.8 2.283 2.641v.007Zm-3.51-.72h2.403a1.16 1.16 0 0 0-1.166-1.07c-.665 0-1.12.435-1.238 1.07ZM57.236 3.669a1.807 1.807 0 0 0-1.166-.483c-.386 0-.583.207-.583.414 0 .248.11.365.414.476l.773.265c.83.286 1.176.742 1.176 1.297 0 .714-.545 1.403-1.663 1.403-.73 0-1.455-.296-1.879-.703l.583-.762c.338.334.859.583 1.276.583.396 0 .652-.17.652-.435 0-.286-.138-.403-.635-.572l-.741-.259c-.624-.217-.97-.683-.97-1.234 0-.652.563-1.314 1.632-1.314.524 0 1.227.207 1.69.641l-.56.683ZM60.843 6.18c.513 0 .91-.249 1.138-.652l.851.434c-.355.663-1.138 1.08-1.986 1.08-1.324 0-2.362-.98-2.362-2.345 0-1.376 1.038-2.355 2.362-2.355.852 0 1.631.414 1.986 1.08l-.851.434c-.228-.407-.625-.652-1.138-.652-.81 0-1.366.641-1.366 1.493 0 .852.555 1.483 1.366 1.483ZM63.64 5.3V2.462h.989v2.71c0 .704.465 1.018 1.048 1.018s1.048-.318 1.048-1.018v-2.71h.98V5.3c0 .938-.742 1.741-2.028 1.741S63.64 6.238 63.64 5.3ZM73.143 4.993h-3.51c.079.683.555 1.186 1.255 1.186.424 0 .82-.169 1.048-.514l1.117.031c-.397.88-1.217 1.345-2.165 1.345-1.325 0-2.304-.99-2.304-2.351 0-1.366.959-2.345 2.276-2.345 1.197 0 2.283.8 2.283 2.641v.007Zm-3.51-.72h2.403a1.16 1.16 0 0 0-1.166-1.07c-.665 0-1.12.435-1.238 1.07ZM75.04 6.92h-.98V0h.98v6.92ZM78.846 3.924c0-.476-.355-.72-.93-.72-.484 0-.921.206-1.256.475l-.465-.73c.375-.328 1.006-.604 1.79-.604 1.175 0 1.847.651 1.847 1.603v2.976h-.99v-.465c-.258.413-.81.582-1.275.582-1.017 0-1.61-.582-1.61-1.403 0-.87.613-1.366 1.61-1.366h.959c.227 0 .317-.1.317-.276v-.072h.003Zm0 1.366v-.387c-.09.07-.248.1-.476.1h-.593c-.524 0-.79.228-.79.604 0 .345.26.662.79.662.555 0 1.07-.286 1.07-.98ZM50.522 17.373h-.98v-6.92h.98v3.123c.238-.444.859-.783 1.514-.783 1.296 0 2.234.98 2.234 2.345 0 1.366-.958 2.352-2.255 2.352-.641 0-1.245-.317-1.493-.762v.645Zm-.031-2.235c0 .852.562 1.504 1.383 1.504.81 0 1.383-.652 1.383-1.504 0-.851-.573-1.493-1.383-1.493-.82 0-1.383.645-1.383 1.493ZM57.76 13.783h-.514c-.634 0-1.048.365-1.048 1.376v2.213h-.98v-4.458h.96v.713c.168-.493.613-.79 1.234-.79a2 2 0 0 1 .345.032v.914h.003ZM59.757 17.372h-.99v-3.648h-.673v-.81h1.663v4.458ZM59.2 10.61a.698.698 0 1 1 0 1.396.689.689 0 0 1-.693-.692c0-.386.307-.704.693-.704ZM62.257 11.114v1.8h1.048v.81h-1.048v2.5c0 .308.227.366.455.366.344 0 .603-.041.603-.041v.82s-.486.049-.852.049c-.534 0-1.196-.11-1.196-.98v-2.713h-.731v-.81h.73v-1.8h.99ZM66.746 14.38c0-.476-.355-.721-.93-.721-.487 0-.922.207-1.256.476l-.466-.731c.376-.328 1.007-.604 1.79-.604 1.176 0 1.848.652 1.848 1.604v2.976h-.99v-.466c-.258.414-.81.583-1.275.583-1.017 0-1.61-.583-1.61-1.404 0-.868.613-1.365 1.61-1.365h.959c.227 0 .317-.1.317-.276v-.072h.003Zm0 1.362v-.386c-.09.069-.248.1-.476.1h-.593c-.524 0-.79.227-.79.603 0 .345.26.662.79.662.555 0 1.07-.286 1.07-.98Zm-1.138-5.29h1.228l-.852 1.673h-.948l.572-1.673ZM69.891 13.173c0 .127 0 .207-.01.296.376-.434.89-.672 1.455-.672 1.048 0 1.662.652 1.662 1.672v2.907h-.99v-2.769c0-.634-.386-.93-.88-.93-.423 0-.84.216-1.216.65v3.046h-.98v-4.459h.959v.259ZM75.377 17.372h-.99v-3.648h-.672v-.81h1.662v4.458Zm-.555-6.762a.698.698 0 1 1 0 1.396.689.689 0 0 1-.693-.692.7.7 0 0 1 .693-.704ZM78.68 16.63c.514 0 .911-.247 1.139-.65l.851.434c-.355.662-1.138 1.079-1.986 1.079-1.324 0-2.362-.98-2.362-2.345 0-1.376 1.038-2.355 2.362-2.355.852 0 1.631.414 1.986 1.08l-.851.434c-.228-.407-.625-.652-1.138-.652-.81 0-1.366.641-1.366 1.493 0 .852.552 1.483 1.366 1.483ZM84.077 14.38c0-.477-.355-.722-.93-.722-.484 0-.922.207-1.256.476l-.466-.73c.376-.328 1.007-.604 1.79-.604 1.176 0 1.848.651 1.848 1.603v2.976h-.99v-.465c-.258.413-.81.582-1.275.582-1.017 0-1.61-.582-1.61-1.403 0-.87.613-1.366 1.61-1.366h.959c.227 0 .317-.1.317-.276v-.072h.003Zm0 1.361v-.386c-.09.069-.248.1-.476.1h-.593c-.524 0-.79.228-.79.603 0 .345.26.663.79.663.555 0 1.07-.287 1.07-.98ZM91.829 16.72c-.238.445-.841.773-1.493.773-1.297 0-2.245-.99-2.245-2.352 0-1.365.931-2.345 2.224-2.345.662 0 1.276.338 1.524.783-.01-.307-.01-.672-.01-1.017v-2.107h.99v6.92h-.99v-.654ZM89.1 15.139c0 .852.562 1.503 1.383 1.503.81 0 1.383-.651 1.383-1.503 0-.852-.573-1.493-1.383-1.493-.82 0-1.383.645-1.383 1.493ZM98.326 15.445h-3.51c.078.683.554 1.186 1.254 1.186.424 0 .821-.169 1.049-.513l1.117.03c-.397.88-1.217 1.345-2.166 1.345-1.324 0-2.303-.99-2.303-2.351 0-1.366.959-2.345 2.276-2.345 1.196 0 2.282.8 2.282 2.641v.007Zm-3.51-.72h2.403a1.16 1.16 0 0 0-1.166-1.07c-.665 0-1.12.435-1.238 1.07ZM52.074 24.831c0-.476-.355-.72-.931-.72-.486 0-.921.206-1.255.475l-.466-.73c.376-.328 1.007-.604 1.79-.604 1.175 0 1.848.652 1.848 1.603v2.976h-.99v-.465c-.258.413-.81.582-1.276.582-1.017 0-1.61-.582-1.61-1.403 0-.869.614-1.366 1.61-1.366h.959c.228 0 .317-.1.317-.275v-.073h.004Zm0 1.362v-.386c-.09.07-.248.1-.476.1h-.593c-.524 0-.79.228-.79.604 0 .344.259.662.79.662.555 0 1.069-.287 1.069-.98ZM56.798 24.238h-.514c-.634 0-1.048.366-1.048 1.376v2.214h-.98v-4.462h.96v.714c.168-.493.613-.79 1.234-.79.11 0 .227.01.344.031v.917h.004ZM58.867 21.566v1.8h1.048v.81h-1.048v2.5c0 .307.227.366.455.366.345 0 .603-.042.603-.042v.821s-.486.048-.851.048c-.535 0-1.197-.11-1.197-.979v-2.717h-.73v-.81h.73v-1.8h.99v.003ZM65.084 25.896h-3.51c.08.683.555 1.186 1.255 1.186.424 0 .82-.168 1.048-.513l1.117.03c-.396.88-1.217 1.346-2.165 1.346-1.324 0-2.303-.99-2.303-2.352 0-1.366.958-2.345 2.275-2.345 1.197 0 2.283.8 2.283 2.641v.007Zm-3.51-.72h2.403a1.16 1.16 0 0 0-1.165-1.07c-.662 0-1.117.439-1.238 1.07ZM68.515 24.572a1.808 1.808 0 0 0-1.165-.483c-.387 0-.583.207-.583.414 0 .248.11.366.414.476l.772.266c.831.286 1.176.741 1.176 1.296 0 .714-.545 1.404-1.662 1.404-.731 0-1.455-.297-1.88-.704l.583-.762c.338.335.859.583 1.276.583.397 0 .652-.17.652-.435 0-.286-.138-.403-.635-.572l-.74-.259c-.625-.217-.97-.682-.97-1.234 0-.652.562-1.314 1.631-1.314.524 0 1.228.207 1.69.641l-.559.683ZM73.853 27.083c.514 0 .91-.248 1.138-.652l.852.435c-.356.662-1.138 1.08-1.987 1.08-1.324 0-2.362-.98-2.362-2.346 0-1.376 1.038-2.355 2.362-2.355.852 0 1.632.414 1.987 1.08l-.852.434c-.228-.407-.624-.652-1.138-.652-.81 0-1.365.642-1.365 1.493.003.852.555 1.483 1.365 1.483ZM79.263 24.238h-.513c-.635 0-1.049.366-1.049 1.376v2.214h-.979v-4.462h.959v.714c.169-.493.614-.79 1.234-.79.11 0 .228.01.345.031v.917h.003ZM84.236 25.896h-3.51c.079.683.555 1.186 1.255 1.186.424 0 .82-.168 1.048-.513l1.117.03c-.396.88-1.217 1.346-2.165 1.346-1.324 0-2.304-.99-2.304-2.352 0-1.366.959-2.345 2.276-2.345 1.197 0 2.283.8 2.283 2.641v.007Zm-3.51-.72h2.403a1.16 1.16 0 0 0-1.166-1.07c-.665 0-1.117.439-1.237 1.07ZM87.656 24.831c0-.476-.355-.72-.93-.72-.483 0-.921.206-1.256.475l-.465-.73c.376-.328 1.007-.604 1.79-.604 1.175 0 1.848.652 1.848 1.603v2.976h-.99v-.465c-.259.413-.81.582-1.276.582-1.017 0-1.61-.582-1.61-1.403 0-.869.614-1.366 1.61-1.366h.959c.227 0 .317-.1.317-.275v-.073h.003Zm0 1.362v-.386c-.09.07-.248.1-.475.1h-.593c-.525 0-.79.228-.79.604 0 .344.258.662.79.662.555 0 1.069-.287 1.069-.98ZM91.098 21.566v1.8h1.048v.81h-1.048v2.5c0 .307.227.366.455.366.345 0 .603-.042.603-.042v.821s-.486.048-.851.048c-.535 0-1.197-.11-1.197-.979v-2.717h-.73v-.81h.73v-1.8h.99v.003ZM94.243 27.828h-.99v-3.652h-.672v-.81h1.662v4.462Zm-.555-6.765c.386 0 .703.317.703.703a.698.698 0 0 1-.704.693.689.689 0 0 1-.693-.693c0-.386.307-.703.694-.703ZM97.277 26.886l1.197-3.52h1.048l-1.641 4.458h-1.245l-1.583-4.459h1.097l1.127 3.52ZM102.725 24.831c0-.476-.355-.72-.931-.72-.486 0-.92.206-1.255.475l-.465-.73c.376-.328 1.007-.604 1.789-.604 1.176 0 1.849.652 1.849 1.603v2.976h-.99v-.465c-.259.413-.81.582-1.276.582-1.017 0-1.61-.582-1.61-1.403 0-.869.614-1.366 1.61-1.366h.959c.227 0 .317-.1.317-.275v-.073h.003Zm0 1.362v-.386c-.089.07-.248.1-.475.1h-.593c-.525 0-.79.228-.79.604 0 .344.258.662.79.662.555 0 1.068-.287 1.068-.98ZM107.45 24.572a1.808 1.808 0 0 0-1.166-.483c-.386 0-.583.207-.583.414 0 .248.111.366.414.476l.773.266c.831.286 1.175.741 1.175 1.296 0 .714-.544 1.404-1.662 1.404-.731 0-1.455-.297-1.879-.704l.583-.762c.338.335.858.583 1.276.583.396 0 .651-.17.651-.435 0-.286-.138-.403-.634-.572l-.741-.259c-.625-.217-.969-.682-.969-1.234 0-.652.562-1.314 1.631-1.314.524 0 1.227.207 1.689.641l-.558.683ZM50.888 38.279h-.197l-1.593-4.459h1.107l1.117 3.51 1.166-3.51h1.058l-1.89 5.183c-.237.642-.613 1-1.403 1h-.693v-.81h.545c.355 0 .524-.117.652-.504l.13-.41ZM57.47 32.021v1.8h1.049v.81H57.47v2.5c0 .307.228.366.456.366.344 0 .603-.041.603-.041v.82s-.486.048-.852.048c-.534 0-1.196-.11-1.196-.979v-2.717h-.731v-.81h.73v-1.8h.99v.003ZM63.691 36.349h-3.51c.079.682.555 1.186 1.255 1.186.424 0 .82-.17 1.048-.514l1.117.03c-.396.88-1.217 1.346-2.165 1.346-1.324 0-2.304-.99-2.304-2.352 0-1.366.959-2.345 2.276-2.345 1.197 0 2.283.8 2.283 2.642v.007Zm-3.51-.721h2.403a1.16 1.16 0 0 0-1.165-1.07c-.666 0-1.121.439-1.238 1.07ZM66.636 37.538c.514 0 .91-.248 1.138-.652l.852.435c-.356.662-1.138 1.08-1.987 1.08-1.324 0-2.362-.98-2.362-2.346 0-1.376 1.038-2.355 2.362-2.355.852 0 1.631.414 1.987 1.08l-.852.434c-.228-.407-.624-.652-1.138-.652-.81 0-1.366.642-1.366 1.493.004.849.556 1.483 1.366 1.483ZM70.463 34.076c0 .128 0 .207-.01.297.376-.435.89-.673 1.455-.673 1.049 0 1.662.652 1.662 1.673v2.907h-.99v-2.77c0-.634-.385-.93-.879-.93-.424 0-.841.217-1.217.651v3.045h-.98v-4.459h.96v.26ZM76.832 33.7c1.314 0 2.383.98 2.383 2.345 0 1.365-1.07 2.352-2.383 2.352-1.314 0-2.372-.99-2.372-2.352-.004-1.366 1.055-2.345 2.372-2.345Zm0 .859c-.81 0-1.376.634-1.376 1.483 0 .851.562 1.493 1.376 1.493.81 0 1.376-.642 1.376-1.493-.003-.849-.566-1.483-1.376-1.483ZM81.16 38.28h-.98v-6.925h.98v6.925ZM84.505 33.7c1.314 0 2.383.98 2.383 2.345 0 1.365-1.07 2.352-2.383 2.352-1.314 0-2.373-.99-2.373-2.352-.003-1.366 1.056-2.345 2.373-2.345Zm0 .859c-.81 0-1.376.634-1.376 1.483 0 .851.562 1.493 1.376 1.493.81 0 1.376-.642 1.376-1.493-.004-.849-.566-1.483-1.376-1.483ZM92.246 33.817v4.814c0 .693-.345 1.365-1.403 1.365h-1.87v-.81h1.721c.266 0 .563-.069.563-.476v-1.096c-.238.434-.842.762-1.494.762-1.286 0-2.234-.97-2.234-2.335 0-1.376.931-2.345 2.224-2.345.652 0 1.266.338 1.514.783 0-.1-.01-.207-.01-.345v-.317h.99Zm-2.334 3.72c.82 0 1.382-.64 1.382-1.492 0-.863-.562-1.504-1.382-1.504-.81 0-1.376.642-1.376 1.504 0 .848.565 1.493 1.376 1.493ZM94.677 38.28h-.98V34.63h-.682v-.81h1.662v4.459Zm-.89-6.925h1.228l-.852 1.673h-.948l.572-1.672ZM98.453 35.282c0-.475-.355-.72-.931-.72-.486 0-.92.207-1.255.476l-.466-.731c.376-.328 1.007-.604 1.79-.604 1.176 0 1.848.652 1.848 1.604v2.975h-.99v-.465c-.258.414-.81.583-1.275.583-1.018 0-1.61-.583-1.61-1.404 0-.869.613-1.365 1.61-1.365h.958c.228 0 .318-.1.318-.276v-.073h.003Zm0 1.366v-.386c-.09.069-.248.1-.476.1h-.593c-.524 0-.79.227-.79.603 0 .345.26.662.79.662.555-.003 1.07-.29 1.07-.979Z"/>
    </g>
    <defs>
        <clipPath id="ja">
            <path fill="#fff" d="M0 0h108.076v40H0z"/>
        </clipPath>
    </defs>
</svg><svg fill="none" viewBox="0 0 224 82" id="logo-footer" xmlns="http://www.w3.org/2000/svg">
    <path d="m2.916.636 2.995 2.467v11.119h16.19l2.201 2.742-2.208 2.608H5.91v10.631L2.916 32.67 0 30.203v-27.1L2.916.636Zm8.756 28.02h12.345l2.065 2.6-2.201 2.75H11.672l-1.994-2.538 1.994-2.813ZM12.102 0h11.772l2.201 2.743-2.201 2.608h-11.63L9.893 2.82 12.1 0ZM77.71 5.28l2.637 2.813-2.637 2.82H37.847l-2.566-2.82 2.566-2.813h39.864ZM33.144 16.971l2.488-2.113 2.494 2.113v3.103c0 5.21 1.423 9.5 7.763 9.5h1.28c5.696 0 8.827-3.803 8.827-9.719V16.9l2.423-2.113 2.494 2.043v3.237c0 5.28 1.566 9.224 7.691 9.224h1.065c5.983 0 7.048-4.51 7.12-9.436v-3.167l2.423-1.972 2.559 2.043v3.167c-.072 6.828-1.923 14.645-11.887 14.645h-1.065c-5.911 0-9.114-2.608-10.393-5.845-1.494 3.308-5.482 6.199-10.893 6.199h-1.287c-10.25 0-13.023-6.121-13.095-14.717v-3.237h-.007Zm20.364 50.963-1.422-3.803 3.702-1.053 13.03 5.838V56.88l2.638-2.184 2.702 2.184v14.575l4.84 2.184 1.35 3.52-3.774 1.336-23.066-10.56Zm23.21-25.7 3.559 1.618-1.137 3.59L47.097 62.16l-3.846-1.477 1.566-3.662 31.9-14.787ZM30.484 62.3l3.131 2.538c-.286 8.942-8.048 13.656-17.226 13.656h-.93c-4.56 0-9.892-1.69-13.309-4.927l.358-3.59 3.345-.424c2.495 2.113 5.983 3.59 9.256 3.59h1.001c6.197 0 10.965-2.53 11.465-8.517l2.91-2.326Zm-2.923-5.845c-.286-6.199-4.982-8.659-11.465-8.659h-1c-3.846 0-6.763 1.477-9.257 3.59l-3.345-.423-.358-3.59c3.417-3.309 8.184-4.857 13.173-4.857h.994c9.257 0 17.019 4.651 17.298 13.727L30.47 58.71l-2.91-2.255ZM111.53 10.235h-7.277c.165 1.4 1.151 2.431 2.602 2.431.879 0 1.701-.346 2.173-1.053l2.316.064c-.822 1.802-2.523 2.757-4.489 2.757-2.745 0-4.775-2.03-4.775-4.821 0-2.8 1.987-4.807 4.718-4.807 2.48 0 4.732 1.64 4.732 5.415v.014Zm-7.277-1.477h4.982a2.393 2.393 0 0 0-2.416-2.192c-1.379 0-2.323.891-2.566 2.192ZM118.641 7.52c-.7-.67-1.722-.989-2.416-.989-.8 0-1.207.424-1.207.848 0 .51.228.75.857.976l1.601.544c1.722.587 2.437 1.52 2.437 2.658 0 1.463-1.129 2.877-3.445 2.877-1.515 0-3.016-.608-3.895-1.442l1.208-1.563c.7.686 1.78 1.195 2.644 1.195.822 0 1.351-.346 1.351-.89 0-.587-.286-.828-1.315-1.174l-1.536-.53c-1.294-.445-2.009-1.4-2.009-2.53 0-1.336 1.165-2.694 3.381-2.694 1.086 0 2.544.425 3.502 1.315l-1.158 1.4ZM126.118 12.666c1.065 0 1.887-.508 2.359-1.335l1.766.89c-.737 1.357-2.359 2.213-4.118 2.213-2.744 0-4.896-2.008-4.896-4.807 0-2.82 2.152-4.828 4.896-4.828 1.766 0 3.381.849 4.118 2.213l-1.766.89c-.472-.834-1.294-1.336-2.359-1.336-1.679 0-2.83 1.315-2.83 3.061s1.151 3.04 2.83 3.04ZM131.915 10.864V5.047h2.051v5.556c0 1.441.965 2.085 2.173 2.085 1.208 0 2.173-.65 2.173-2.085V5.047h2.029v5.817c0 1.923-1.536 3.57-4.202 3.57s-4.224-1.647-4.224-3.57ZM151.614 10.235h-7.276c.164 1.4 1.151 2.431 2.602 2.431.879 0 1.701-.346 2.173-1.053l2.316.064c-.822 1.802-2.524 2.757-4.489 2.757-2.745 0-4.775-2.03-4.775-4.821 0-2.8 1.987-4.807 4.718-4.807 2.48 0 4.731 1.64 4.731 5.415v.014Zm-7.276-1.477h4.982a2.393 2.393 0 0 0-2.416-2.192c-1.38 0-2.323.891-2.566 2.192ZM155.545 14.186h-2.029V0h2.029v14.186ZM163.436 8.044c0-.976-.736-1.478-1.929-1.478-1.001 0-1.909.425-2.602.976l-.965-1.499c.779-.671 2.087-1.237 3.709-1.237 2.438 0 3.831 1.336 3.831 3.287v6.1h-2.051v-.954c-.536.848-1.68 1.194-2.644 1.194-2.109 0-3.338-1.194-3.338-2.876 0-1.782 1.272-2.8 3.338-2.8h1.987c.471 0 .657-.204.657-.565v-.148h.007Zm0 2.799v-.792c-.186.142-.514.205-.986.205h-1.229c-1.087 0-1.637.467-1.637 1.237 0 .707.536 1.357 1.637 1.357 1.15 0 2.215-.586 2.215-2.007ZM104.725 35.61h-2.03V21.424h2.03v6.404c.493-.912 1.78-1.604 3.138-1.604 2.687 0 4.631 2.007 4.631 4.806s-1.987 4.82-4.674 4.82c-1.33 0-2.581-.65-3.095-1.562v1.322Zm-.064-4.58c0 1.746 1.165 3.082 2.866 3.082 1.68 0 2.866-1.336 2.866-3.082 0-1.746-1.186-3.06-2.866-3.06-1.701 0-2.866 1.321-2.866 3.06ZM119.728 28.252h-1.065c-1.315 0-2.173.75-2.173 2.82v4.538h-2.03v-9.14h1.987v1.464c.35-1.01 1.272-1.619 2.559-1.619.228 0 .471.022.714.064v1.873h.008ZM123.866 35.61h-2.051v-7.478h-1.393v-1.661h3.444v9.14Zm-1.15-13.86c.8 0 1.458.65 1.458 1.441 0 .792-.658 1.421-1.458 1.421a1.42 1.42 0 0 1-1.437-1.42c0-.792.636-1.443 1.437-1.443ZM129.048 22.781v3.69h2.173v1.661h-2.173v5.125c0 .629.472.749.944.749.715 0 1.251-.085 1.251-.085v1.682s-1.008.1-1.766.1c-1.108 0-2.48-.227-2.48-2.008v-5.563h-1.515v-1.661h1.515v-3.69h2.051ZM138.355 29.475c0-.976-.737-1.477-1.93-1.477-1.008 0-1.908.424-2.602.975l-.964-1.498c.779-.672 2.087-1.237 3.709-1.237 2.437 0 3.831 1.335 3.831 3.286v6.1h-2.052v-.954c-.536.848-1.679 1.195-2.644 1.195-2.108 0-3.338-1.195-3.338-2.877 0-1.781 1.273-2.8 3.338-2.8h1.987c.472 0 .657-.204.657-.565v-.148h.008Zm0 2.792v-.792c-.186.142-.515.205-.987.205h-1.229c-1.086 0-1.637.467-1.637 1.237 0 .707.536 1.357 1.637 1.357 1.151 0 2.216-.586 2.216-2.007Zm-2.359-10.843h2.544l-1.765 3.428h-1.965l1.186-3.428ZM144.874 27.001c0 .262 0 .424-.022.608a3.948 3.948 0 0 1 3.016-1.378c2.173 0 3.445 1.336 3.445 3.428v5.959h-2.051v-5.676c0-1.301-.8-1.909-1.822-1.909-.88 0-1.744.445-2.523 1.336v6.241h-2.03v-9.139h1.987v.53ZM156.246 35.61h-2.051v-7.478h-1.394v-1.661h3.445v9.14Zm-1.151-13.86c.801 0 1.458.65 1.458 1.441 0 .792-.657 1.421-1.458 1.421-.8 0-1.436-.63-1.436-1.42a1.442 1.442 0 0 1 1.436-1.443ZM163.094 34.09c1.065 0 1.887-.508 2.359-1.335l1.765.89c-.736 1.357-2.359 2.213-4.117 2.213-2.745 0-4.896-2.008-4.896-4.807 0-2.82 2.151-4.827 4.896-4.827 1.765 0 3.381.848 4.117 2.212l-1.765.89c-.472-.833-1.294-1.335-2.359-1.335-1.68 0-2.831 1.314-2.831 3.06s1.144 3.04 2.831 3.04ZM174.279 29.475c0-.975-.736-1.477-1.929-1.477-1.001 0-1.909.424-2.602.975l-.965-1.498c.779-.672 2.087-1.237 3.71-1.237 2.437 0 3.83 1.336 3.83 3.287v6.1h-2.051v-.955c-.536.849-1.679 1.195-2.644 1.195-2.109 0-3.338-1.195-3.338-2.877 0-1.781 1.272-2.799 3.338-2.799h1.987c.471 0 .657-.205.657-.566v-.148h.007Zm0 2.792v-.792c-.185.142-.514.205-.986.205h-1.229c-1.087 0-1.637.467-1.637 1.237 0 .707.536 1.358 1.637 1.358 1.15 0 2.215-.587 2.215-2.008ZM190.348 34.274c-.493.912-1.744 1.584-3.095 1.584-2.687 0-4.653-2.029-4.653-4.821 0-2.799 1.93-4.806 4.61-4.806 1.373 0 2.645.692 3.16 1.604-.022-.629-.022-1.378-.022-2.085V21.43h2.052v14.186h-2.052v-1.343Zm-5.654-3.244c0 1.746 1.165 3.082 2.867 3.082 1.679 0 2.866-1.336 2.866-3.082 0-1.746-1.187-3.06-2.866-3.06-1.702 0-2.867 1.321-2.867 3.06ZM203.815 31.66h-7.277c.165 1.399 1.151 2.43 2.602 2.43.879 0 1.701-.346 2.173-1.053l2.316.064c-.822 1.803-2.523 2.757-4.489 2.757-2.745 0-4.775-2.029-4.775-4.82 0-2.8 1.987-4.807 4.718-4.807 2.48 0 4.732 1.64 4.732 5.414v.014Zm-7.277-1.478h4.982a2.393 2.393 0 0 0-2.416-2.191c-1.379 0-2.323.89-2.566 2.19ZM107.941 50.9c0-.976-.736-1.478-1.93-1.478-1.008 0-1.908.424-2.601.975l-.965-1.498c.779-.672 2.087-1.237 3.709-1.237 2.437 0 3.831 1.336 3.831 3.287v6.1h-2.051v-.955c-.536.849-1.68 1.195-2.645 1.195-2.108 0-3.337-1.195-3.337-2.877 0-1.781 1.272-2.799 3.337-2.799h1.987c.472 0 .658-.205.658-.565v-.149h.007Zm0 2.791V52.9c-.186.14-.515.205-.987.205h-1.229c-1.086 0-1.636.466-1.636 1.237 0 .706.536 1.357 1.636 1.357 1.151 0 2.216-.587 2.216-2.008ZM117.733 49.684h-1.065c-1.315 0-2.172.749-2.172 2.82v4.538h-2.03v-9.147h1.987v1.463c.35-1.01 1.272-1.618 2.559-1.618.228 0 .471.02.714.063v1.88h.007ZM122.022 44.206v3.69h2.173v1.66h-2.173v5.125c0 .629.472.75.944.75.714 0 1.25-.086 1.25-.086v1.683s-1.007.099-1.765.099c-1.108 0-2.48-.227-2.48-2.008v-5.57h-1.515v-1.66h1.515v-3.69h2.051v.007ZM134.91 53.083h-7.276c.164 1.4 1.15 2.432 2.601 2.432.88 0 1.702-.346 2.173-1.053l2.316.063c-.822 1.803-2.523 2.757-4.489 2.757-2.744 0-4.774-2.029-4.774-4.82 0-2.8 1.987-4.807 4.717-4.807 2.481 0 4.732 1.64 4.732 5.414v.014Zm-7.276-1.477h4.982a2.393 2.393 0 0 0-2.416-2.191c-1.373 0-2.316.898-2.566 2.191ZM142.021 50.369c-.7-.672-1.722-.99-2.415-.99-.801 0-1.208.425-1.208.849 0 .509.229.749.858.975l1.6.544c1.723.587 2.438 1.52 2.438 2.658 0 1.463-1.13 2.877-3.445 2.877-1.515 0-3.016-.608-3.895-1.442l1.207-1.562c.701.686 1.78 1.194 2.645 1.194.822 0 1.351-.346 1.351-.89 0-.587-.286-.827-1.315-1.174l-1.537-.53c-1.294-.445-2.008-1.4-2.008-2.53 0-1.336 1.165-2.693 3.38-2.693 1.087 0 2.544.424 3.502 1.314l-1.158 1.4ZM153.087 55.515c1.065 0 1.887-.51 2.359-1.336l1.765.89c-.736 1.358-2.359 2.213-4.117 2.213-2.745 0-4.896-2.007-4.896-4.807 0-2.82 2.151-4.827 4.896-4.827 1.766 0 3.381.848 4.117 2.212l-1.765.89c-.472-.833-1.294-1.335-2.359-1.335-1.68 0-2.831 1.315-2.831 3.06.008 1.746 1.151 3.04 2.831 3.04ZM164.301 49.684h-1.065c-1.315 0-2.172.749-2.172 2.82v4.538h-2.03v-9.147h1.987v1.463c.35-1.01 1.272-1.618 2.558-1.618.229 0 .472.02.715.063v1.88h.007ZM174.609 53.083h-7.277c.165 1.4 1.151 2.432 2.602 2.432.879 0 1.701-.346 2.173-1.053l2.316.063c-.822 1.803-2.523 2.757-4.489 2.757-2.745 0-4.775-2.029-4.775-4.82 0-2.8 1.988-4.807 4.718-4.807 2.48 0 4.732 1.64 4.732 5.414v.014Zm-7.277-1.477h4.982a2.393 2.393 0 0 0-2.416-2.191c-1.379 0-2.315.898-2.566 2.191ZM181.699 50.9c0-.976-.736-1.478-1.93-1.478-1.001 0-1.908.424-2.601.975l-.965-1.498c.779-.672 2.087-1.237 3.709-1.237 2.437 0 3.831 1.336 3.831 3.287v6.1h-2.051v-.955c-.536.849-1.68 1.195-2.645 1.195-2.108 0-3.337-1.195-3.337-2.877 0-1.781 1.272-2.799 3.337-2.799h1.987c.472 0 .658-.205.658-.565v-.149h.007Zm0 2.791V52.9c-.186.14-.515.205-.987.205h-1.229c-1.086 0-1.636.466-1.636 1.237 0 .706.536 1.357 1.636 1.357 1.151 0 2.216-.587 2.216-2.008ZM188.832 44.206v3.69h2.173v1.66h-2.173v5.125c0 .629.472.75.944.75.714 0 1.25-.086 1.25-.086v1.683s-1.007.099-1.765.099c-1.108 0-2.48-.227-2.48-2.008v-5.57h-1.515v-1.66h1.515v-3.69h2.051v.007ZM195.351 57.042H193.3v-7.486h-1.394v-1.66h3.445v9.146Zm-1.15-13.868c.8 0 1.458.65 1.458 1.441 0 .792-.658 1.421-1.458 1.421a1.42 1.42 0 0 1-1.437-1.42c0-.792.636-1.442 1.437-1.442ZM201.642 55.112l2.48-7.217h2.173l-3.402 9.14h-2.581l-3.281-9.14h2.273l2.338 7.217ZM212.935 50.9c0-.976-.737-1.478-1.93-1.478-1.008 0-1.908.424-2.602.975l-.964-1.498c.779-.672 2.086-1.237 3.709-1.237 2.437 0 3.831 1.336 3.831 3.287v6.1h-2.052v-.955c-.536.849-1.679 1.195-2.644 1.195-2.108 0-3.338-1.195-3.338-2.877 0-1.781 1.273-2.799 3.338-2.799h1.987c.472 0 .657-.205.657-.565v-.149h.008Zm0 2.791V52.9c-.186.14-.515.205-.987.205h-1.229c-1.086 0-1.637.466-1.637 1.237 0 .706.536 1.357 1.637 1.357 1.151 0 2.216-.587 2.216-2.008ZM222.727 50.369c-.7-.672-1.722-.99-2.416-.99-.8 0-1.207.425-1.207.849 0 .509.228.749.857.975l1.601.544c1.722.587 2.437 1.52 2.437 2.658 0 1.463-1.129 2.877-3.445 2.877-1.515 0-3.016-.608-3.895-1.442l1.208-1.562c.7.686 1.78 1.194 2.644 1.194.822 0 1.351-.346 1.351-.89 0-.587-.286-.827-1.315-1.174l-1.536-.53c-1.294-.445-2.009-1.4-2.009-2.53 0-1.336 1.165-2.693 3.381-2.693 1.086 0 2.544.424 3.502 1.314l-1.158 1.4ZM105.483 78.466h-.408l-3.302-9.14h2.294l2.316 7.196 2.416-7.196h2.195l-3.917 10.624c-.494 1.315-1.273 2.05-2.91 2.05h-1.436v-1.661h1.129c.736 0 1.087-.24 1.351-1.032l.272-.841ZM119.127 65.637v3.69h2.173v1.66h-2.173v5.125c0 .63.472.75.944.75.714 0 1.25-.086 1.25-.086v1.683s-1.007.099-1.765.099c-1.108 0-2.48-.227-2.48-2.008v-5.57h-1.515v-1.66h1.515v-3.69h2.051v.007ZM132.022 74.508h-7.276c.164 1.4 1.151 2.431 2.602 2.431.879 0 1.701-.346 2.173-1.053l2.316.064c-.822 1.802-2.524 2.756-4.489 2.756-2.745 0-4.775-2.028-4.775-4.82 0-2.8 1.987-4.807 4.718-4.807 2.48 0 4.731 1.64 4.731 5.415v.014Zm-7.276-1.478h4.982a2.393 2.393 0 0 0-2.416-2.19c-1.38 0-2.323.897-2.566 2.19ZM138.127 76.946c1.065 0 1.887-.509 2.358-1.336l1.766.89c-.736 1.358-2.359 2.213-4.117 2.213-2.745 0-4.897-2.007-4.897-4.806 0-2.82 2.152-4.828 4.897-4.828 1.765 0 3.381.848 4.117 2.213l-1.766.89c-.471-.834-1.293-1.336-2.358-1.336-1.68 0-2.831 1.315-2.831 3.06.007 1.74 1.151 3.04 2.831 3.04ZM146.06 69.85c0 .261 0 .424-.021.607a3.948 3.948 0 0 1 3.016-1.378c2.173 0 3.445 1.336 3.445 3.428v5.959h-2.051V72.79c0-1.3-.801-1.909-1.823-1.909-.879 0-1.744.446-2.523 1.336v6.242h-2.029v-9.14h1.986v.53ZM159.263 69.08c2.723 0 4.939 2.007 4.939 4.806s-2.216 4.82-4.939 4.82c-2.724 0-4.918-2.028-4.918-4.82-.007-2.8 2.187-4.807 4.918-4.807Zm0 1.76c-1.68 0-2.852 1.3-2.852 3.038 0 1.746 1.165 3.061 2.852 3.061 1.679 0 2.852-1.315 2.852-3.06-.008-1.74-1.173-3.04-2.852-3.04ZM168.233 78.466h-2.03V64.272h2.03v14.194ZM175.166 69.08c2.724 0 4.939 2.007 4.939 4.806s-2.215 4.82-4.939 4.82c-2.723 0-4.917-2.028-4.917-4.82-.007-2.8 2.187-4.807 4.917-4.807Zm0 1.76c-1.679 0-2.852 1.3-2.852 3.038 0 1.746 1.165 3.061 2.852 3.061 1.68 0 2.852-1.315 2.852-3.06-.007-1.74-1.172-3.04-2.852-3.04ZM191.213 69.32v9.867c0 1.42-.715 2.799-2.909 2.799h-3.874v-1.661h3.567c.55 0 1.165-.142 1.165-.976v-2.247c-.494.89-1.744 1.562-3.095 1.562-2.666 0-4.632-1.986-4.632-4.785 0-2.82 1.93-4.807 4.61-4.807 1.351 0 2.623.693 3.138 1.605 0-.205-.021-.425-.021-.707v-.65h2.051Zm-4.839 7.626c1.701 0 2.866-1.314 2.866-3.06 0-1.767-1.165-3.082-2.866-3.082-1.68 0-2.852 1.314-2.852 3.082 0 1.738 1.172 3.06 2.852 3.06ZM196.252 78.466h-2.03v-7.479h-1.415v-1.66h3.445v9.139Zm-1.844-14.194h2.544l-1.765 3.429h-1.965l1.186-3.428ZM204.078 72.323c0-.975-.736-1.477-1.929-1.477-1.008 0-1.908.424-2.602.976l-.965-1.499c.779-.671 2.087-1.237 3.71-1.237 2.437 0 3.83 1.336 3.83 3.287v6.1h-2.051v-.954c-.536.848-1.679 1.194-2.644 1.194-2.108 0-3.338-1.194-3.338-2.876 0-1.782 1.272-2.8 3.338-2.8h1.987c.471 0 .657-.205.657-.565v-.148h.007Zm0 2.8v-.792c-.185.141-.514.205-.986.205h-1.229c-1.086 0-1.637.466-1.637 1.237 0 .707.536 1.357 1.637 1.357 1.151-.007 2.215-.594 2.215-2.007Z" fill="#FCFAF9"/>
</svg><svg fill="none" viewBox="0 0 20 20" id="search" xmlns="http://www.w3.org/2000/svg">
    <path fill-rule="evenodd" clip-rule="evenodd" d="M7.94.024 7.478.09a8.935 8.935 0 0 0-2.561.815C2.354 2.189.637 4.492.1 7.364c-.096.511-.133 1.885-.066 2.452.365 3.1 2.245 5.736 5.031 7.052 2.909 1.375 6.403 1.05 8.969-.832l.341-.25 2.108 2.107L18.591 20l.704-.704.705-.705-2.11-2.11-2.11-2.11.14-.177c.295-.373.679-1.01.936-1.553a8.732 8.732 0 0 0 .673-5.586A8.848 8.848 0 0 0 11.648.442C10.613.101 9.896-.009 8.773.001c-.395.003-.77.014-.833.023Zm2.08 2.031c.595.097 1.443.385 2.021.687 1.89.987 3.2 2.772 3.598 4.899.117.62.116 1.855 0 2.447-.555 2.824-2.624 4.924-5.451 5.531-.624.134-1.918.146-2.549.024-1.393-.27-2.656-.925-3.62-1.877-2.693-2.66-2.761-6.952-.153-9.669a6.797 6.797 0 0 1 3.397-1.956 6.912 6.912 0 0 1 2.756-.086Z" fill="#1B1F21"/>
</svg><svg fill="none" viewBox="0 0 41 41" id="star" xmlns="http://www.w3.org/2000/svg">
    <path d="m19.445.95 5.751 14.94 15.595 3.616-14.94 5.752-3.616 15.595-5.751-14.94L.889 22.297l14.94-5.752L19.445.95Z" fill="#1B1F21"/>
</svg><svg fill="none" viewBox="0 0 120 120" id="sticker-confirm" xmlns="http://www.w3.org/2000/svg">
    <circle cx="60" cy="60" r="60" fill="#FE6D44"/>
    <path d="m105.658 34.548-7.654 6.923 1.125 2.516 10.265-1.079-.874-1.956-7.92.908 5.964-5.285-.906-2.027ZM105.452 46.3c-2.87.531-4.593 3.002-4.061 5.865.532 2.863 3.029 4.552 5.899 4.021 2.87-.531 4.593-3.002 4.061-5.865-.532-2.863-3.03-4.552-5.899-4.02Zm1.444 7.768c-1.866.345-3.296-.546-3.613-2.253-.318-1.708.697-3.051 2.563-3.396 1.866-.346 3.296.545 3.613 2.252.318 1.708-.697 3.051-2.563 3.397ZM107.389 57.83c-2.901-.167-5.167 1.612-5.34 4.597-.131 2.268 1.002 3.982 2.992 4.698l.692-1.987c-1.196-.396-1.839-1.296-1.764-2.587.101-1.747 1.505-2.673 3.295-2.57 1.79.103 3.075 1.237 2.975 2.97-.074 1.265-.823 1.98-2.043 2.224l.47 2.068c2.013-.355 3.363-1.938 3.493-4.18.169-2.92-1.909-5.068-4.77-5.233ZM100.213 73.229l1.373-5.19 9.035 2.381-1.373 5.189-1.569-.413.868-3.283-1.986-.523-.809 3.055-1.569-.413.808-3.056-2.328-.613-.869 3.282-1.581-.416Zm12.196 1.687a8.264 8.264 0 0 0-.753.288 23.544 23.544 0 0 0-1.525.8l-.164-.044.331-1.25c.192-.183.412-.381.658-.596.255-.212.525-.397.811-.556a5.007 5.007 0 0 1-.421-.867c-.11-.3-.208-.577-.293-.834l.33-1.25.165.044c.118.202.257.428.416.677.166.26.339.512.517.757.185.256.355.467.509.634l-.581 2.197ZM98.384 77.927 95.04 83.84l1.63.917 2.315-4.094 1.983 1.116-1.53 2.707 1.63.917 1.53-2.706 1.676.943-2.251 3.98 1.631.918 3.279-5.8-8.55-4.812ZM95.423 94.867c1.615.707 3.152.3 4.436-1.2 1.36-1.588 1.541-3.65.168-4.82-1.652-1.408-3.213-.248-4.462.748-.866.67-1.57 1.29-2.236.722-.607-.518-.426-1.291.186-2.006.688-.804 1.521-1.073 2.52-.531l.918-2.017c-1.696-.793-3.35-.349-4.779 1.32-1.488 1.737-1.584 3.698-.131 4.937 1.582 1.348 3.142.29 4.375-.667.91-.701 1.658-1.353 2.294-.81.528.45.437 1.18-.21 1.934-.628.734-1.41.823-2.173.448l-.906 1.942ZM87.146 92.295l-1.642 1.297 4.9 6.172-2.195 1.735 1.195 1.505 6.032-4.768-1.194-1.504-2.196 1.735-4.9-6.172ZM77.275 98.483l1.62 1.666 3.029-1.548-.409-2.285 1.899-.97 1.343 9.833-2.155 1.101-7.226-6.826 1.9-.97Zm4.394 4.547c.106.112.242.253.408.423.165.169.333.343.502.52.17.178.314.334.432.469a15.23 15.23 0 0 1-.135-.664 40.658 40.658 0 0 1-.148-.746 6.75 6.75 0 0 1-.093-.496l-.396-2.233-2.167 1.108 1.597 1.619Zm.782 6.364c.053-.164.13-.369.228-.615.1-.247.21-.508.332-.786a14.779 14.779 0 0 1 .677-1.432l1.153-.589.077.151-.168.732c-.067.288-.129.579-.185.872-.051.3-.088.563-.109.789l-1.945.994-.06-.116ZM71.392 100.558l-2.034.496 2.334 9.513 2.034-.497-2.334-9.512ZM67.28 101.715l-1.947.117.412 6.817-4.71-6.558-2.22.133.59 9.776 1.96-.118-.41-6.765 4.695 6.507 2.22-.133-.59-9.776ZM48.473 108.18c.229 1.745 1.373 2.847 3.323 3.168 2.066.34 3.928-.57 4.222-2.348.354-2.139-1.448-2.873-2.949-3.424-1.022-.394-1.918-.673-1.775-1.537.13-.786.887-1.031 1.817-.878 1.046.172 1.707.744 1.758 1.878l2.205-.259c-.196-1.859-1.433-3.042-3.602-3.399-2.26-.373-3.993.559-4.304 2.44-.34 2.049 1.375 2.834 2.834 3.392 1.073.415 2.018.716 1.881 1.541-.113.683-.786.982-1.767.82-.956-.157-1.437-.779-1.509-1.624l-2.134.23ZM47.12 105.385c1.074-2.694.095-5.4-2.69-6.504-2.116-.839-4.103-.305-5.412 1.354l1.673 1.281c.753-1.008 1.812-1.333 3.016-.856 1.63.646 2.07 2.267 1.407 3.93-.662 1.662-2.145 2.522-3.763 1.881-1.18-.468-1.624-1.403-1.471-2.635l-2.115-.206c-.297 2.018.784 3.795 2.876 4.625 2.725 1.08 5.422-.212 6.48-2.87ZM39.28 96.794l-1.71-1.182-2.05 2.951-1.302-.9.2-4.23-1.936-1.34-.211 4.843c-1.086-.179-2.142.219-2.82 1.195-1.09 1.567-.646 3.336.957 4.444l3.28 2.269 5.592-8.05Zm-7.752 4.283c-.656-.453-.79-1.133-.357-1.755.425-.612 1.099-.734 1.744-.288l1.539 1.064-1.41 2.028-1.516-1.049ZM31.808 91.233l-1.507-1.45-6.815 7.048 1.507 1.45 6.815-7.048ZM27.383 86.568l-1.275-1.657-6.26 4.794-1.706-2.217-1.526 1.169 4.685 6.09 1.526-1.168-1.705-2.217 6.26-4.794ZM19.582 84.461c2.647-1.227 3.7-4.047 2.47-6.688-1.229-2.64-4.069-3.657-6.716-2.43-2.646 1.227-3.7 4.047-2.47 6.688 1.23 2.64 4.07 3.657 6.716 2.43Zm-3.336-7.164c1.721-.798 3.329-.29 4.062 1.285.733 1.575.085 3.128-1.636 3.925-1.72.798-3.328.29-4.061-1.285-.734-1.575-.086-3.128 1.635-3.925ZM18.677 69.226l-.212-1.934-6.804.74 6.338-5.01-.241-2.207L8 61.875l.213 1.948 6.752-.734-6.287 4.991.24 2.207 9.759-1.06ZM17.628 59.783l.258-2.073-2.495-1.256.434-3.486 2.727-.61.269-2.164-10.199 2.474-.277 2.228 9.283 4.887Zm-4.035-4.25-2.842-1.43 3.107-.695-.265 2.125ZM19.854 46.568l.818-1.766-6.214-2.865 8.02-1.035.934-2.015-8.91-4.108-.824 1.778 6.166 2.843-7.967 1.044-.934 2.015 8.91 4.11ZM24.58 37.055l4.123-5.402-1.489-1.132-2.854 3.74-1.812-1.376 1.887-2.473-1.49-1.13-1.886 2.472-1.53-1.163 2.774-3.636-1.489-1.132-4.044 5.299 7.81 5.933ZM28.494 22.454l1.12 4.668-5.71-4.618-1.612 1.314 7.773 6.31 1.712-1.397-.885-3.68 3.5 1.548 1.712-1.396-4.662-8.847-1.59 1.297 3.429 6.496-4.433-1.984-.354.289ZM41.812 13.904c-1.19-1.3-2.76-1.548-4.543-.697-1.889.902-2.892 2.713-2.112 4.339.938 1.955 2.837 1.526 4.383 1.12 1.064-.262 1.959-.544 2.337.245.345.718-.134 1.352-.984 1.758-.956.457-1.827.366-2.52-.534l-1.658 1.473c1.228 1.411 2.921 1.674 4.904.727 2.066-.987 2.951-2.741 2.126-4.461-.898-1.873-2.754-1.537-4.27-1.16-1.118.273-2.065.567-2.427-.187-.3-.625.08-1.255.977-1.683.874-.417 1.625-.182 2.17.47l1.617-1.41ZM46.403 20.041l6.262-1.604-.478-1.86-4.234 1.086-1.963-7.627-2.028.52 2.441 9.486ZM54.06 18.199l6.791-.434-.12-1.863-4.701.3-.146-2.268 3.109-.198-.12-1.864-3.108.199-.123-1.916 4.571-.292L60.093 8l-6.66.425.626 9.774ZM64.06 18.075l2.079.257.972-7.814 2.78.345.237-1.905-7.637-.947-.237 1.905 2.78.345-.973 7.814ZM71.807 19.546l1.995.635 2.4-7.5 2.669.85.585-1.83-7.331-2.334-.585 1.828 2.668.85-2.4 7.501ZM77.14 21.354l6 3.205.884-1.646-4.154-2.22 1.075-2.002 2.746 1.467.884-1.646-2.746-1.467.908-1.693 4.038 2.157.883-1.646-5.884-3.143-4.633 8.634ZM84.099 25.146l1.597 1.331 2.307-2.756 1.216 1.013-.58 4.195 1.809 1.507.645-4.804c1.065.275 2.153-.027 2.916-.939 1.225-1.463.942-3.264-.555-4.511l-3.064-2.553-6.291 7.517Zm8.105-3.573c.613.51.685 1.2.198 1.781-.478.572-1.16.633-1.763.13l-1.436-1.196 1.585-1.895 1.416 1.18ZM96.707 30.582c.394-.29.756-.459 1.088-.508.337-.043.641.01.912.156.278.142.518.349.72.622.202.273.327.56.375.86.06.302.02.607-.12.915-.14.31-.407.608-.8.898-.386.284-.748.447-1.085.49a1.56 1.56 0 0 1-.923-.149 1.967 1.967 0 0 1-.712-.611 2.041 2.041 0 0 1-.383-.87 1.55 1.55 0 0 1 .13-.924c.146-.302.412-.595.798-.879Z" fill="#FCFAF9"/>
    <path fill-rule="evenodd" clip-rule="evenodd" d="M46.575 41.82c-.252 0-.501.025-.555.056-.108.062 12.244 21.55 12.554 21.84.232.215.905.396 1.214.324.41-.094 21.854-12.528 21.792-12.635-.03-.053-.25-.206-.487-.34-.383-.219-2.291-.744-17.245-4.746-14.566-3.898-16.876-4.5-17.273-4.5Zm-3.083 1.646c-.24.352-.398.916-3.244 11.538s-2.991 11.19-2.96 11.614c.019.246.057.453.086.461.028.008 3.47-1.96 7.65-4.373l7.597-4.387-4.386-7.598c-2.413-4.178-4.41-7.604-4.439-7.611-.029-.008-.166.152-.304.356Zm31.747 14.491-7.597 4.387 4.386 7.598c2.412 4.179 4.41 7.604 4.439 7.612.028.008.165-.153.304-.356.24-.353.398-.916 3.244-11.538s2.99-11.19 2.96-11.615c-.019-.245-.057-.453-.086-.46-.028-.008-3.471 1.96-7.65 4.372Zm-29.066 6.849c-4.891 2.824-7.526 4.39-7.49 4.453.03.052.25.206.486.34.384.218 2.3.746 17.209 4.74 14.91 3.996 16.832 4.497 17.273 4.5.273.002.54-.022.593-.052.062-.036-1.44-2.714-4.274-7.623l-4.369-7.568-2.342 1.338c-2.143 1.224-2.401 1.35-3.042 1.476l-.7.138-.98-.263-.982-.263-.536-.47c-.49-.43-.656-.675-1.886-2.779-.741-1.268-1.363-2.31-1.381-2.316-.018-.004-3.429 1.952-7.58 4.349Z" fill="#FCFAF9"/>
</svg><svg fill="none" viewBox="0 0 17 17" id="time" xmlns="http://www.w3.org/2000/svg">
    <path fill-rule="evenodd" clip-rule="evenodd" d="M7.778.519a8.15 8.15 0 0 0-4.225 1.685c-.61.47-1.402 1.352-1.86 2.072-.197.311-.582 1.099-.72 1.475a9.594 9.594 0 0 0-.399 1.561c-.099.61-.099 1.769 0 2.38.14.862.361 1.56.74 2.331.414.844.844 1.441 1.533 2.13.689.69 1.287 1.12 2.13 1.533.772.379 1.47.6 2.332.74.61.099 1.769.099 2.379 0a7.87 7.87 0 0 0 2.332-.74c.843-.414 1.44-.844 2.13-1.533.689-.689 1.119-1.287 1.533-2.13.274-.56.413-.927.56-1.49.198-.75.248-1.161.248-2.031 0-.87-.05-1.281-.247-2.031a7.09 7.09 0 0 0-.561-1.49c-.414-.844-.844-1.442-1.533-2.13-.69-.69-1.287-1.12-2.13-1.534A7.782 7.782 0 0 0 9.703.582C9.243.51 8.216.476 7.778.52Zm1.465 1.255a6.697 6.697 0 0 1 4.03 1.952c1.3 1.3 1.986 2.95 1.986 4.776 0 1.825-.686 3.476-1.985 4.775-1.3 1.3-2.95 1.986-4.776 1.986-1.825 0-3.476-.687-4.775-1.986-1.3-1.3-1.986-2.95-1.986-4.775 0-1.826.687-3.477 1.986-4.776a6.747 6.747 0 0 1 3.993-1.95c.344-.04 1.177-.04 1.527-.002Zm-1.014 2.5a.622.622 0 0 0-.324.393c-.026.09-.034.672-.027 2.082.01 1.905.012 1.96.075 2.081.052.102.301.306 1.314 1.074.688.521 1.313.986 1.39 1.032.523.313 1.142-.245.877-.792-.064-.131-.19-.235-1.24-1.023l-1.17-.877V6.499c0-1.22-.01-1.776-.035-1.85a.616.616 0 0 0-.59-.434.78.78 0 0 0-.27.058Z" fill="#AEAEAE" stroke="#AEAEAE" stroke-width=".2"/>
</svg><svg fill="none" viewBox="0 0 32 32" id="youtube" xmlns="http://www.w3.org/2000/svg">
    <path fill-rule="evenodd" clip-rule="evenodd" d="M2.343 2.343C0 4.686 0 8.458 0 16c0 7.543 0 11.314 2.343 13.657S8.458 32 16 32c7.543 0 11.314 0 13.657-2.343S32 23.543 32 16c0-7.542 0-11.314-2.343-13.657S23.543 0 16 0C8.458 0 4.686 0 2.343 2.343ZM13.256 22.05l9.517-5.666a.5.5 0 0 0-.003-.86l-9.517-5.582a.5.5 0 0 0-.753.43V21.62a.5.5 0 0 0 .756.43Z" fill="#757778"/>
</svg></svg>